<svg width="1920" height="384" viewBox="0 0 1920 384" fill="none" xmlns="http://www.w3.org/2000/svg">
<path d="M710.548 161.25V134L793.048 23H835.548L754.798 134L735.048 128.25H872.798V161.25H710.548ZM804.798 198V161.25L806.048 128.25V95.5H844.298V198H804.798ZM959.911 201C945.578 201 932.744 197.5 921.411 190.5C910.078 183.333 901.161 173 894.661 159.5C888.161 146 884.911 129.667 884.911 110.5C884.911 91.3333 888.161 75 894.661 61.5C901.161 48 910.078 37.75 921.411 30.75C932.744 23.5833 945.578 20 959.911 20C974.411 20 987.244 23.5833 998.411 30.75C1009.74 37.75 1018.66 48 1025.16 61.5C1031.66 75 1034.91 91.3333 1034.91 110.5C1034.91 129.667 1031.66 146 1025.16 159.5C1018.66 173 1009.74 183.333 998.411 190.5C987.244 197.5 974.411 201 959.911 201ZM959.911 166.75C966.744 166.75 972.661 164.833 977.661 161C982.828 157.167 986.828 151.083 989.661 142.75C992.661 134.417 994.161 123.667 994.161 110.5C994.161 97.3333 992.661 86.5833 989.661 78.25C986.828 69.9167 982.828 63.8333 977.661 60C972.661 56.1667 966.744 54.25 959.911 54.25C953.244 54.25 947.328 56.1667 942.161 60C937.161 63.8333 933.161 69.9167 930.161 78.25C927.328 86.5833 925.911 97.3333 925.911 110.5C925.911 123.667 927.328 134.417 930.161 142.75C933.161 151.083 937.161 157.167 942.161 161C947.328 164.833 953.244 166.75 959.911 166.75ZM1052.59 161.25V134L1135.09 23H1177.59L1096.84 134L1077.09 128.25H1214.84V161.25H1052.59ZM1146.84 198V161.25L1148.09 128.25V95.5H1186.34V198H1146.84Z" fill="#B596FF"/>
<path d="M528.95 354.2C520.35 354.2 512.7 352.4 506 348.8C499.4 345.2 494.15 340.3 490.25 334.1C486.45 327.8 484.55 320.65 484.55 312.65C484.55 304.55 486.45 297.4 490.25 291.2C494.15 284.9 499.4 280 506 276.5C512.7 272.9 520.35 271.1 528.95 271.1C537.45 271.1 545.05 272.9 551.75 276.5C558.45 280 563.7 284.85 567.5 291.05C571.3 297.25 573.2 304.45 573.2 312.65C573.2 320.65 571.3 327.8 567.5 334.1C563.7 340.3 558.45 345.2 551.75 348.8C545.05 352.4 537.45 354.2 528.95 354.2ZM528.95 335C532.85 335 536.35 334.1 539.45 332.3C542.55 330.5 545 327.95 546.8 324.65C548.6 321.25 549.5 317.25 549.5 312.65C549.5 307.95 548.6 303.95 546.8 300.65C545 297.35 542.55 294.8 539.45 293C536.35 291.2 532.85 290.3 528.95 290.3C525.05 290.3 521.55 291.2 518.45 293C515.35 294.8 512.85 297.35 510.95 300.65C509.15 303.95 508.25 307.95 508.25 312.65C508.25 317.25 509.15 321.25 510.95 324.65C512.85 327.95 515.35 330.5 518.45 332.3C521.55 334.1 525.05 335 528.95 335ZM603.615 353V286.1L608.865 291.5H576.315V272.3H654.165V291.5H621.615L626.865 286.1V353H603.615ZM701.67 354.2C692.97 354.2 685.22 352.45 678.42 348.95C671.62 345.35 666.27 340.4 662.37 334.1C658.57 327.8 656.67 320.65 656.67 312.65C656.67 304.55 658.57 297.4 662.37 291.2C666.27 284.9 671.62 280 678.42 276.5C685.22 272.9 692.97 271.1 701.67 271.1C710.17 271.1 717.57 272.9 723.87 276.5C730.17 280 734.82 285.05 737.82 291.65L719.67 301.4C717.57 297.6 714.92 294.8 711.72 293C708.62 291.2 705.22 290.3 701.52 290.3C697.52 290.3 693.92 291.2 690.72 293C687.52 294.8 684.97 297.35 683.07 300.65C681.27 303.95 680.37 307.95 680.37 312.65C680.37 317.35 681.27 321.35 683.07 324.65C684.97 327.95 687.52 330.5 690.72 332.3C693.92 334.1 697.52 335 701.52 335C705.22 335 708.62 334.15 711.72 332.45C714.92 330.65 717.57 327.8 719.67 323.9L737.82 333.8C734.82 340.3 730.17 345.35 723.87 348.95C717.57 352.45 710.17 354.2 701.67 354.2ZM761.817 383.3C757.617 383.3 753.467 382.65 749.367 381.35C745.267 380.05 741.917 378.25 739.317 375.95L747.867 359.3C749.667 360.9 751.717 362.15 754.017 363.05C756.417 363.95 758.767 364.4 761.067 364.4C764.367 364.4 766.967 363.6 768.867 362C770.867 360.5 772.667 357.95 774.267 354.35L778.467 344.45L780.267 341.9L809.217 272.3H831.717L795.267 357.95C792.667 364.45 789.667 369.55 786.267 373.25C782.967 376.95 779.267 379.55 775.167 381.05C771.167 382.55 766.717 383.3 761.817 383.3ZM775.617 356.15L739.617 272.3H763.767L791.667 339.8L775.617 356.15ZM860.695 353V286.1L865.945 291.5H833.395V272.3H911.245V291.5H878.695L883.945 286.1V353H860.695ZM958.75 354.2C950.05 354.2 942.3 352.45 935.5 348.95C928.7 345.35 923.35 340.4 919.45 334.1C915.65 327.8 913.75 320.65 913.75 312.65C913.75 304.55 915.65 297.4 919.45 291.2C923.35 284.9 928.7 280 935.5 276.5C942.3 272.9 950.05 271.1 958.75 271.1C967.25 271.1 974.65 272.9 980.95 276.5C987.25 280 991.9 285.05 994.9 291.65L976.75 301.4C974.65 297.6 972 294.8 968.8 293C965.7 291.2 962.3 290.3 958.6 290.3C954.6 290.3 951 291.2 947.8 293C944.6 294.8 942.05 297.35 940.15 300.65C938.35 303.95 937.45 307.95 937.45 312.65C937.45 317.35 938.35 321.35 940.15 324.65C942.05 327.95 944.6 330.5 947.8 332.3C951 334.1 954.6 335 958.6 335C962.3 335 965.7 334.15 968.8 332.45C972 330.65 974.65 327.8 976.75 323.9L994.9 333.8C991.9 340.3 987.25 345.35 980.95 348.95C974.65 352.45 967.25 354.2 958.75 354.2ZM1026.22 353V286.1L1031.47 291.5H998.923V272.3H1076.77V291.5H1044.22L1049.47 286.1V353H1026.22ZM1089.25 353V272.3H1130.5C1140.6 272.3 1148.5 274.15 1154.2 277.85C1159.9 281.45 1162.75 286.55 1162.75 293.15C1162.75 299.75 1160.05 304.95 1154.65 308.75C1149.35 312.45 1142.3 314.3 1133.5 314.3L1135.9 308.9C1145.7 308.9 1153 310.7 1157.8 314.3C1162.7 317.9 1165.15 323.15 1165.15 330.05C1165.15 337.15 1162.45 342.75 1157.05 346.85C1151.65 350.95 1143.4 353 1132.3 353H1089.25ZM1110.7 337.1H1130.35C1134.65 337.1 1137.85 336.4 1139.95 335C1142.15 333.5 1143.25 331.25 1143.25 328.25C1143.25 325.15 1142.25 322.9 1140.25 321.5C1138.25 320 1135.1 319.25 1130.8 319.25H1110.7V337.1ZM1110.7 305.45H1128.4C1132.5 305.45 1135.55 304.7 1137.55 303.2C1139.65 301.7 1140.7 299.55 1140.7 296.75C1140.7 293.85 1139.65 291.7 1137.55 290.3C1135.55 288.9 1132.5 288.2 1128.4 288.2H1110.7V305.45ZM1193.51 383.3C1189.31 383.3 1185.16 382.65 1181.06 381.35C1176.96 380.05 1173.61 378.25 1171.01 375.95L1179.56 359.3C1181.36 360.9 1183.41 362.15 1185.71 363.05C1188.11 363.95 1190.46 364.4 1192.76 364.4C1196.06 364.4 1198.66 363.6 1200.56 362C1202.56 360.5 1204.36 357.95 1205.96 354.35L1210.16 344.45L1211.96 341.9L1240.91 272.3H1263.41L1226.96 357.95C1224.36 364.45 1221.36 369.55 1217.96 373.25C1214.66 376.95 1210.96 379.55 1206.86 381.05C1202.86 382.55 1198.41 383.3 1193.51 383.3ZM1207.31 356.15L1171.31 272.3H1195.46L1223.36 339.8L1207.31 356.15ZM1311.95 354.2C1302.75 354.2 1294.65 352.4 1287.65 348.8C1280.75 345.2 1275.4 340.3 1271.6 334.1C1267.8 327.8 1265.9 320.65 1265.9 312.65C1265.9 304.55 1267.75 297.4 1271.45 291.2C1275.25 284.9 1280.4 280 1286.9 276.5C1293.4 272.9 1300.75 271.1 1308.95 271.1C1316.85 271.1 1323.95 272.8 1330.25 276.2C1336.65 279.5 1341.7 284.3 1345.4 290.6C1349.1 296.8 1350.95 304.25 1350.95 312.95C1350.95 313.85 1350.9 314.9 1350.8 316.1C1350.7 317.2 1350.6 318.25 1350.5 319.25H1284.95V305.6H1338.2L1329.2 309.65C1329.2 305.45 1328.35 301.8 1326.65 298.7C1324.95 295.6 1322.6 293.2 1319.6 291.5C1316.6 289.7 1313.1 288.8 1309.1 288.8C1305.1 288.8 1301.55 289.7 1298.45 291.5C1295.45 293.2 1293.1 295.65 1291.4 298.85C1289.7 301.95 1288.85 305.65 1288.85 309.95V313.55C1288.85 317.95 1289.8 321.85 1291.7 325.25C1293.7 328.55 1296.45 331.1 1299.95 332.9C1303.55 334.6 1307.75 335.45 1312.55 335.45C1316.85 335.45 1320.6 334.8 1323.8 333.5C1327.1 332.2 1330.1 330.25 1332.8 327.65L1345.25 341.15C1341.55 345.35 1336.9 348.6 1331.3 350.9C1325.7 353.1 1319.25 354.2 1311.95 354.2ZM1383.35 353V286.1L1388.6 291.5H1356.05V272.3H1433.9V291.5H1401.35L1406.6 286.1V353H1383.35ZM1446.72 354.2C1442.72 354.2 1439.27 352.85 1436.37 350.15C1433.57 347.35 1432.17 343.8 1432.17 339.5C1432.17 335.2 1433.57 331.75 1436.37 329.15C1439.27 326.45 1442.72 325.1 1446.72 325.1C1450.82 325.1 1454.27 326.45 1457.07 329.15C1459.87 331.75 1461.27 335.2 1461.27 339.5C1461.27 343.8 1459.87 347.35 1457.07 350.15C1454.27 352.85 1450.82 354.2 1446.72 354.2ZM1485.98 354.2C1481.98 354.2 1478.53 352.85 1475.63 350.15C1472.83 347.35 1471.43 343.8 1471.43 339.5C1471.43 335.2 1472.83 331.75 1475.63 329.15C1478.53 326.45 1481.98 325.1 1485.98 325.1C1490.08 325.1 1493.53 326.45 1496.33 329.15C1499.13 331.75 1500.53 335.2 1500.53 339.5C1500.53 343.8 1499.13 347.35 1496.33 350.15C1493.53 352.85 1490.08 354.2 1485.98 354.2ZM1525.23 354.2C1521.23 354.2 1517.78 352.85 1514.88 350.15C1512.08 347.35 1510.68 343.8 1510.68 339.5C1510.68 335.2 1512.08 331.75 1514.88 329.15C1517.78 326.45 1521.23 325.1 1525.23 325.1C1529.33 325.1 1532.78 326.45 1535.58 329.15C1538.38 331.75 1539.78 335.2 1539.78 339.5C1539.78 343.8 1538.38 347.35 1535.58 350.15C1532.78 352.85 1529.33 354.2 1525.23 354.2ZM1564.49 354.2C1560.49 354.2 1557.04 352.85 1554.14 350.15C1551.34 347.35 1549.94 343.8 1549.94 339.5C1549.94 335.2 1551.34 331.75 1554.14 329.15C1557.04 326.45 1560.49 325.1 1564.49 325.1C1568.59 325.1 1572.04 326.45 1574.84 329.15C1577.64 331.75 1579.04 335.2 1579.04 339.5C1579.04 343.8 1577.64 347.35 1574.84 350.15C1572.04 352.85 1568.59 354.2 1564.49 354.2Z" fill="#828282"/>
<path d="M498.876 265.4C495.976 265.4 493.393 264.817 491.126 263.65C488.86 262.45 487.076 260.8 485.776 258.7C484.51 256.6 483.876 254.217 483.876 251.55C483.876 248.85 484.51 246.467 485.776 244.4C487.076 242.3 488.86 240.667 491.126 239.5C493.393 238.3 495.976 237.7 498.876 237.7C501.71 237.7 504.176 238.3 506.276 239.5C508.376 240.667 509.926 242.35 510.926 244.55L504.876 247.8C504.176 246.533 503.293 245.6 502.226 245C501.193 244.4 500.06 244.1 498.826 244.1C497.493 244.1 496.293 244.4 495.226 245C494.16 245.6 493.31 246.45 492.676 247.55C492.076 248.65 491.776 249.983 491.776 251.55C491.776 253.117 492.076 254.45 492.676 255.55C493.31 256.65 494.16 257.5 495.226 258.1C496.293 258.7 497.493 259 498.826 259C500.06 259 501.193 258.717 502.226 258.15C503.293 257.55 504.176 256.6 504.876 255.3L510.926 258.6C509.926 260.767 508.376 262.45 506.276 263.65C504.176 264.817 501.71 265.4 498.876 265.4ZM521.367 265V242.7L523.117 244.5H512.267V238.1H538.217V244.5H527.367L529.117 242.7V265H521.367ZM558.225 265.4C555.958 265.4 553.975 264.9 552.275 263.9C550.575 262.9 549.242 261.383 548.275 259.35C547.342 257.283 546.875 254.683 546.875 251.55C546.875 248.383 547.325 245.783 548.225 243.75C549.125 241.717 550.425 240.2 552.125 239.2C553.825 238.2 555.858 237.7 558.225 237.7C560.758 237.7 563.025 238.283 565.025 239.45C567.058 240.583 568.658 242.183 569.825 244.25C571.025 246.317 571.625 248.75 571.625 251.55C571.625 254.383 571.025 256.833 569.825 258.9C568.658 260.967 567.058 262.567 565.025 263.7C563.025 264.833 560.758 265.4 558.225 265.4ZM542.325 274.7V238.1H549.775V243.6L549.625 251.6L550.125 259.55V274.7H542.325ZM556.875 259C558.175 259 559.325 258.7 560.325 258.1C561.358 257.5 562.175 256.65 562.775 255.55C563.408 254.417 563.725 253.083 563.725 251.55C563.725 249.983 563.408 248.65 562.775 247.55C562.175 246.45 561.358 245.6 560.325 245C559.325 244.4 558.175 244.1 556.875 244.1C555.575 244.1 554.408 244.4 553.375 245C552.342 245.6 551.525 246.45 550.925 247.55C550.325 248.65 550.025 249.983 550.025 251.55C550.025 253.083 550.325 254.417 550.925 255.55C551.525 256.65 552.342 257.5 553.375 258.1C554.408 258.7 555.575 259 556.875 259ZM592.752 265V259.75L592.252 258.6V249.2C592.252 247.533 591.736 246.233 590.702 245.3C589.702 244.367 588.152 243.9 586.052 243.9C584.619 243.9 583.202 244.133 581.802 244.6C580.436 245.033 579.269 245.633 578.302 246.4L575.502 240.95C576.969 239.917 578.736 239.117 580.802 238.55C582.869 237.983 584.969 237.7 587.102 237.7C591.202 237.7 594.386 238.667 596.652 240.6C598.919 242.533 600.052 245.55 600.052 249.65V265H592.752ZM584.552 265.4C582.452 265.4 580.652 265.05 579.152 264.35C577.652 263.617 576.502 262.633 575.702 261.4C574.902 260.167 574.502 258.783 574.502 257.25C574.502 255.65 574.886 254.25 575.652 253.05C576.452 251.85 577.702 250.917 579.402 250.25C581.102 249.55 583.319 249.2 586.052 249.2H593.202V253.75H586.902C585.069 253.75 583.802 254.05 583.102 254.65C582.436 255.25 582.102 256 582.102 256.9C582.102 257.9 582.486 258.7 583.252 259.3C584.052 259.867 585.136 260.15 586.502 260.15C587.802 260.15 588.969 259.85 590.002 259.25C591.036 258.617 591.786 257.7 592.252 256.5L593.452 260.1C592.886 261.833 591.852 263.15 590.352 264.05C588.852 264.95 586.919 265.4 584.552 265.4ZM606.828 265V238.1H614.578V248.6H626.278V238.1H634.078V265H626.278V254.95H614.578V265H606.828ZM641.545 265V238.1H649.295V254.1L662.395 238.1H669.545V265H661.795V249L648.745 265H641.545ZM677.043 265V238.1H684.793V258.6H695.643V238.1H703.443V265H677.043ZM700.093 270.8V264.9L701.893 265H695.643V258.6H707.343V270.8H700.093ZM728.348 265V259.75L727.848 258.6V249.2C727.848 247.533 727.331 246.233 726.298 245.3C725.298 244.367 723.748 243.9 721.648 243.9C720.215 243.9 718.798 244.133 717.398 244.6C716.031 245.033 714.865 245.633 713.898 246.4L711.098 240.95C712.565 239.917 714.331 239.117 716.398 238.55C718.465 237.983 720.565 237.7 722.698 237.7C726.798 237.7 729.981 238.667 732.248 240.6C734.515 242.533 735.648 245.55 735.648 249.65V265H728.348ZM720.148 265.4C718.048 265.4 716.248 265.05 714.748 264.35C713.248 263.617 712.098 262.633 711.298 261.4C710.498 260.167 710.098 258.783 710.098 257.25C710.098 255.65 710.481 254.25 711.248 253.05C712.048 251.85 713.298 250.917 714.998 250.25C716.698 249.55 718.915 249.2 721.648 249.2H728.798V253.75H722.498C720.665 253.75 719.398 254.05 718.698 254.65C718.031 255.25 717.698 256 717.698 256.9C717.698 257.9 718.081 258.7 718.848 259.3C719.648 259.867 720.731 260.15 722.098 260.15C723.398 260.15 724.565 259.85 725.598 259.25C726.631 258.617 727.381 257.7 727.848 256.5L729.048 260.1C728.481 261.833 727.448 263.15 725.948 264.05C724.448 264.95 722.515 265.4 720.148 265.4Z" fill="#828282"/>
</svg>
