<svg width="1920" height="636" viewBox="0 0 1920 636" fill="none" xmlns="http://www.w3.org/2000/svg">
<ellipse cx="961.946" cy="318.528" rx="32.4324" ry="37.7358" fill="white"/>
<ellipse cx="1009.3" cy="285.321" rx="32.4324" ry="37.7359" fill="white"/>
<ellipse cx="914.595" cy="285.321" rx="32.4324" ry="37.7359" fill="white"/>
<ellipse cx="888.649" cy="210.604" rx="22.7027" ry="26.4151" fill="white"/>
<ellipse cx="1028.11" cy="205.32" rx="22.7027" ry="26.4151" fill="white"/>
<path d="M970.01 393.437C971.079 392.283 1010.64 368.244 1054.89 342.379C1068.54 334.398 1079.73 327.571 1079.73 327.282C1079.73 326.994 1078.41 317.667 1076.85 306.513C1064.76 222.474 1047.65 165.166 1031.86 155.647C1028.08 153.435 1026.68 153.435 1022.89 155.743C1015 160.647 1004.06 180.743 998.221 201.32L996.329 207.859L992.217 207.282C970.75 204.205 946.323 204.109 929.792 207.186C924.938 208.147 920.827 208.724 920.662 208.532C920.497 208.339 918.112 203.628 915.398 198.147C906.104 179.205 895.494 163.435 888.832 158.724C887.105 157.474 884.638 156.705 882.417 156.705C879.209 156.705 878.387 157.185 875.508 160.743C866.625 171.608 856.838 206.512 848.696 256.224C843.596 287.475 838.908 327.571 840.224 328.917C840.553 329.205 855.769 336.801 874.11 345.648C916.221 366.129 914.658 365.359 936.207 375.937C946.158 380.84 956.851 387.276 960.469 389.006C964.088 390.738 970.01 393.437 970.01 393.437ZM1028.24 185.455C1028.49 185.839 1026.68 189.878 1024.21 194.205C1021.74 198.628 1018.54 205.647 1017.06 209.782C1014.67 216.609 1013.11 218.628 1011.96 216.513C1010.97 214.589 1015.74 202.282 1021.58 191.993C1025.53 185.07 1027.17 183.435 1028.24 185.455ZM891.547 191.512C899.607 203.147 907.173 218.916 905.282 220.263C903.719 221.32 903.143 220.647 900.347 214.109C897.139 206.609 891.958 197.57 888.339 193.243C886.858 191.416 885.624 189.397 885.624 188.724C885.624 186.128 888.832 187.666 891.547 191.512ZM1036.55 205.647C1036.79 206.128 1035.15 208.724 1032.93 211.513C1030.79 214.205 1028.08 218.532 1027.01 221.128C1024.95 226.224 1023.22 227.763 1022.4 225.359C1021.66 223.147 1025.12 216.032 1029.89 209.974C1033.67 204.974 1035.48 203.82 1036.55 205.647ZM888.585 211.705C893.356 217.666 896.646 223.532 895.905 224.974C894.918 226.897 893.356 225.936 891.793 222.378C890.888 220.359 888.174 216.513 885.789 213.724C881.677 208.916 881.019 206.705 883.486 206.705C884.062 206.705 886.365 209.013 888.585 211.705ZM925.103 262.955C938.592 270.936 940.894 293.051 929.38 304.878C918.852 315.648 902.649 312.378 895.988 297.955C892.944 291.513 892.287 283.34 894.261 277.186C895.905 272.186 901.169 264.974 904.706 262.859C910.874 259.109 918.688 259.109 925.103 262.955ZM1019.85 263.147C1027.25 267.859 1031.2 275.84 1031.2 285.84C1031.2 296.032 1026.92 303.82 1018.7 308.725C1005.54 316.609 989.009 305.552 987.857 288.147C986.377 267.186 1004.31 253.244 1019.85 263.147ZM971.079 300.552C972.477 301.897 973.629 303.629 973.629 304.398C973.629 307.763 970.915 311.706 967.378 313.532C964.006 315.359 963.759 315.744 963.759 319.109C963.759 322.571 964.088 323.051 969.598 327.282C974.452 331.032 975.192 332.09 974.369 333.244C973.3 334.783 973.464 334.783 966.227 329.109C962.772 326.417 961.95 326.417 960.223 328.629C959.4 329.59 957.179 331.802 955.206 333.436C952.245 335.937 951.422 336.225 950.682 335.167C949.859 334.109 950.764 332.763 955.041 328.629C960.141 323.821 960.469 323.244 960.469 319.59C960.469 315.744 960.305 315.455 956.603 313.34C946.487 307.475 950.435 298.148 963.101 298.051C967.789 298.051 968.941 298.436 971.079 300.552Z" fill="black"/>
<path d="M910.742 273.821C911.154 277.186 910.907 277.859 909.015 279.301C907.288 280.648 906.383 280.84 904.903 279.975C903.834 279.398 902.682 279.206 902.436 279.494C902.189 279.879 901.942 282.571 901.942 285.552C901.942 295.36 907.452 301.417 915.76 300.648C923.409 299.975 927.85 294.398 927.85 285.552C927.85 276.417 923.409 271.033 915.184 270.36L910.331 269.975L910.742 273.821Z" fill="black"/>
<path d="M1005.49 270.743C1005.41 271.224 1005.33 273.147 1005.24 274.878C1005.16 279.205 1001.71 281.994 998.993 279.974C997.513 278.917 997.266 279.012 996.526 281.224C995.292 285.071 995.539 287.667 997.595 292.282C1000.06 297.955 1002.94 300.166 1008.2 300.647C1015.69 301.32 1021.2 296.225 1022.43 287.378C1023.09 282.763 1020.46 275.743 1016.92 272.666C1014.62 270.743 1005.66 269.205 1005.49 270.743Z" fill="black"/>
<path d="M1000.52 286.824V285.952L1003.16 282.4H1004.52L1001.93 285.952L1001.3 285.768H1005.71V286.824H1000.52ZM1003.53 288V286.824L1003.57 285.768V284.72H1004.8V288H1003.53ZM1008.5 288.096C1008.04 288.096 1007.63 287.984 1007.27 287.76C1006.9 287.531 1006.62 287.2 1006.41 286.768C1006.2 286.336 1006.1 285.813 1006.1 285.2C1006.1 284.587 1006.2 284.064 1006.41 283.632C1006.62 283.2 1006.9 282.872 1007.27 282.648C1007.63 282.419 1008.04 282.304 1008.5 282.304C1008.96 282.304 1009.37 282.419 1009.73 282.648C1010.09 282.872 1010.38 283.2 1010.59 283.632C1010.79 284.064 1010.9 284.587 1010.9 285.2C1010.9 285.813 1010.79 286.336 1010.59 286.768C1010.38 287.2 1010.09 287.531 1009.73 287.76C1009.37 287.984 1008.96 288.096 1008.5 288.096ZM1008.5 287C1008.72 287 1008.91 286.939 1009.07 286.816C1009.23 286.693 1009.36 286.499 1009.45 286.232C1009.55 285.965 1009.59 285.621 1009.59 285.2C1009.59 284.779 1009.55 284.435 1009.45 284.168C1009.36 283.901 1009.23 283.707 1009.07 283.584C1008.91 283.461 1008.72 283.4 1008.5 283.4C1008.28 283.4 1008.09 283.461 1007.93 283.584C1007.77 283.707 1007.64 283.901 1007.55 284.168C1007.45 284.435 1007.41 284.779 1007.41 285.2C1007.41 285.621 1007.45 285.965 1007.55 286.232C1007.64 286.499 1007.77 286.693 1007.93 286.816C1008.09 286.939 1008.28 287 1008.5 287ZM1011.46 286.824V285.952L1014.1 282.4H1015.46L1012.88 285.952L1012.25 285.768H1016.65V286.824H1011.46ZM1014.48 288V286.824L1014.52 285.768V284.72H1015.74V288H1014.48Z" fill="#B596FF"/>
<path d="M906.518 286.824V285.952L909.158 282.4H910.518L907.934 285.952L907.302 285.768H911.71V286.824H906.518ZM909.534 288V286.824L909.574 285.768V284.72H910.798V288H909.534ZM914.497 288.096C914.038 288.096 913.628 287.984 913.265 287.76C912.902 287.531 912.617 287.2 912.409 286.768C912.201 286.336 912.097 285.813 912.097 285.2C912.097 284.587 912.201 284.064 912.409 283.632C912.617 283.2 912.902 282.872 913.265 282.648C913.628 282.419 914.038 282.304 914.497 282.304C914.961 282.304 915.372 282.419 915.729 282.648C916.092 282.872 916.377 283.2 916.585 283.632C916.793 284.064 916.897 284.587 916.897 285.2C916.897 285.813 916.793 286.336 916.585 286.768C916.377 287.2 916.092 287.531 915.729 287.76C915.372 287.984 914.961 288.096 914.497 288.096ZM914.497 287C914.716 287 914.905 286.939 915.065 286.816C915.23 286.693 915.358 286.499 915.449 286.232C915.545 285.965 915.593 285.621 915.593 285.2C915.593 284.779 915.545 284.435 915.449 284.168C915.358 283.901 915.23 283.707 915.065 283.584C914.905 283.461 914.716 283.4 914.497 283.4C914.284 283.4 914.094 283.461 913.929 283.584C913.769 283.707 913.641 283.901 913.545 284.168C913.454 284.435 913.409 284.779 913.409 285.2C913.409 285.621 913.454 285.965 913.545 286.232C913.641 286.499 913.769 286.693 913.929 286.816C914.094 286.939 914.284 287 914.497 287ZM917.463 286.824V285.952L920.103 282.4H921.463L918.879 285.952L918.247 285.768H922.655V286.824H917.463ZM920.479 288V286.824L920.519 285.768V284.72H921.743V288H920.479Z" fill="#B596FF"/>
<path d="M400.012 597.568C388.775 597.568 378.779 595.216 370.024 590.512C361.4 585.808 354.54 579.405 349.444 571.304C344.479 563.072 341.996 553.729 341.996 543.276C341.996 532.692 344.479 523.349 349.444 515.248C354.54 507.016 361.4 500.613 370.024 496.04C378.779 491.336 388.775 488.984 400.012 488.984C411.119 488.984 421.049 491.336 429.804 496.04C438.559 500.613 445.419 506.951 450.384 515.052C455.349 523.153 457.832 532.561 457.832 543.276C457.832 553.729 455.349 563.072 450.384 571.304C445.419 579.405 438.559 585.808 429.804 590.512C421.049 595.216 411.119 597.568 400.012 597.568ZM400.012 572.48C405.108 572.48 409.681 571.304 413.732 568.952C417.783 566.6 420.984 563.268 423.336 558.956C425.688 554.513 426.864 549.287 426.864 543.276C426.864 537.135 425.688 531.908 423.336 527.596C420.984 523.284 417.783 519.952 413.732 517.6C409.681 515.248 405.108 514.072 400.012 514.072C394.916 514.072 390.343 515.248 386.292 517.6C382.241 519.952 378.975 523.284 376.492 527.596C374.14 531.908 372.964 537.135 372.964 543.276C372.964 549.287 374.14 554.513 376.492 558.956C378.975 563.268 382.241 566.6 386.292 568.952C390.343 571.304 394.916 572.48 400.012 572.48ZM497.574 596V508.584L504.434 515.64H461.902V490.552H563.626V515.64H521.094L527.954 508.584V596H497.574ZM625.698 597.568C614.33 597.568 604.204 595.281 595.318 590.708C586.433 586.004 579.442 579.536 574.346 571.304C569.381 563.072 566.898 553.729 566.898 543.276C566.898 532.692 569.381 523.349 574.346 515.248C579.442 507.016 586.433 500.613 595.318 496.04C604.204 491.336 614.33 488.984 625.698 488.984C636.805 488.984 646.474 491.336 654.706 496.04C662.938 500.613 669.014 507.212 672.934 515.836L649.218 528.576C646.474 523.611 643.012 519.952 638.83 517.6C634.78 515.248 630.337 514.072 625.502 514.072C620.276 514.072 615.572 515.248 611.39 517.6C607.209 519.952 603.877 523.284 601.394 527.596C599.042 531.908 597.866 537.135 597.866 543.276C597.866 549.417 599.042 554.644 601.394 558.956C603.877 563.268 607.209 566.6 611.39 568.952C615.572 571.304 620.276 572.48 625.502 572.48C630.337 572.48 634.78 571.369 638.83 569.148C643.012 566.796 646.474 563.072 649.218 557.976L672.934 570.912C669.014 579.405 662.938 586.004 654.706 590.708C646.474 595.281 636.805 597.568 625.698 597.568ZM704.291 635.592C698.803 635.592 693.381 634.743 688.023 633.044C682.666 631.345 678.289 628.993 674.891 625.988L686.063 604.232C688.415 606.323 691.094 607.956 694.099 609.132C697.235 610.308 700.306 610.896 703.311 610.896C707.623 610.896 711.021 609.851 713.503 607.76C716.117 605.8 718.469 602.468 720.559 597.764L726.047 584.828L728.399 581.496L766.227 490.552H795.627L747.999 602.468C744.602 610.961 740.682 617.625 736.239 622.46C731.927 627.295 727.093 630.692 721.735 632.652C716.509 634.612 710.694 635.592 704.291 635.592ZM722.323 600.116L675.283 490.552H706.839L743.295 578.752L722.323 600.116ZM833.492 596V508.584L840.352 515.64H797.82V490.552H899.544V515.64H857.012L863.872 508.584V596H833.492ZM961.616 597.568C950.248 597.568 940.122 595.281 931.236 590.708C922.351 586.004 915.36 579.536 910.264 571.304C905.299 563.072 902.816 553.729 902.816 543.276C902.816 532.692 905.299 523.349 910.264 515.248C915.36 507.016 922.351 500.613 931.236 496.04C940.122 491.336 950.248 488.984 961.616 488.984C972.723 488.984 982.392 491.336 990.624 496.04C998.856 500.613 1004.93 507.212 1008.85 515.836L985.136 528.576C982.392 523.611 978.93 519.952 974.748 517.6C970.698 515.248 966.255 514.072 961.42 514.072C956.194 514.072 951.49 515.248 947.308 517.6C943.127 519.952 939.795 523.284 937.312 527.596C934.96 531.908 933.784 537.135 933.784 543.276C933.784 549.417 934.96 554.644 937.312 558.956C939.795 563.268 943.127 566.6 947.308 568.952C951.49 571.304 956.194 572.48 961.42 572.48C966.255 572.48 970.698 571.369 974.748 569.148C978.93 566.796 982.392 563.072 985.136 557.976L1008.85 570.912C1004.93 579.405 998.856 586.004 990.624 590.708C982.392 595.281 972.723 597.568 961.616 597.568ZM1049.78 596V508.584L1056.64 515.64H1014.11V490.552H1115.83V515.64H1073.3L1080.16 508.584V596H1049.78ZM1132.13 596V490.552H1186.03C1199.23 490.552 1209.55 492.969 1217 497.804C1224.45 502.508 1228.17 509.172 1228.17 517.796C1228.17 526.42 1224.64 533.215 1217.59 538.18C1210.66 543.015 1201.45 545.432 1189.95 545.432L1193.09 538.376C1205.89 538.376 1215.43 540.728 1221.7 545.432C1228.11 550.136 1231.31 556.996 1231.31 566.012C1231.31 575.289 1227.78 582.607 1220.72 587.964C1213.67 593.321 1202.89 596 1188.38 596H1132.13ZM1160.16 575.224H1185.84C1191.45 575.224 1195.64 574.309 1198.38 572.48C1201.25 570.52 1202.69 567.58 1202.69 563.66C1202.69 559.609 1201.38 556.669 1198.77 554.84C1196.16 552.88 1192.04 551.9 1186.42 551.9H1160.16V575.224ZM1160.16 533.868H1183.29C1188.64 533.868 1192.63 532.888 1195.24 530.928C1197.99 528.968 1199.36 526.159 1199.36 522.5C1199.36 518.711 1197.99 515.901 1195.24 514.072C1192.63 512.243 1188.64 511.328 1183.29 511.328H1160.16V533.868ZM1268.37 635.592C1262.88 635.592 1257.45 634.743 1252.1 633.044C1246.74 631.345 1242.36 628.993 1238.97 625.988L1250.14 604.232C1252.49 606.323 1255.17 607.956 1258.17 609.132C1261.31 610.308 1264.38 610.896 1267.39 610.896C1271.7 610.896 1275.09 609.851 1277.58 607.76C1280.19 605.8 1282.54 602.468 1284.63 597.764L1290.12 584.828L1292.47 581.496L1330.3 490.552H1359.7L1312.07 602.468C1308.68 610.961 1304.76 617.625 1300.31 622.46C1296 627.295 1291.17 630.692 1285.81 632.652C1280.58 634.612 1274.77 635.592 1268.37 635.592ZM1286.4 600.116L1239.36 490.552H1270.91L1307.37 578.752L1286.4 600.116ZM1423.13 597.568C1411.11 597.568 1400.52 595.216 1391.38 590.512C1382.36 585.808 1375.37 579.405 1370.4 571.304C1365.44 563.072 1362.96 553.729 1362.96 543.276C1362.96 532.692 1365.37 523.349 1370.21 515.248C1375.17 507.016 1381.9 500.613 1390.4 496.04C1398.89 491.336 1408.49 488.984 1419.21 488.984C1429.53 488.984 1438.81 491.205 1447.04 495.648C1455.4 499.96 1462 506.232 1466.84 514.464C1471.67 522.565 1474.09 532.3 1474.09 543.668C1474.09 544.844 1474.02 546.216 1473.89 547.784C1473.76 549.221 1473.63 550.593 1473.5 551.9H1387.85V534.064H1457.43L1445.67 539.356C1445.67 533.868 1444.56 529.099 1442.34 525.048C1440.12 520.997 1437.04 517.861 1433.12 515.64C1429.2 513.288 1424.63 512.112 1419.4 512.112C1414.18 512.112 1409.54 513.288 1405.49 515.64C1401.57 517.861 1398.5 521.063 1396.28 525.244C1394.06 529.295 1392.94 534.129 1392.94 539.748V544.452C1392.94 550.201 1394.19 555.297 1396.67 559.74C1399.28 564.052 1402.88 567.384 1407.45 569.736C1412.15 571.957 1417.64 573.068 1423.91 573.068C1429.53 573.068 1434.43 572.219 1438.61 570.52C1442.92 568.821 1446.84 566.273 1450.37 562.876L1466.64 580.516C1461.81 586.004 1455.73 590.251 1448.41 593.256C1441.1 596.131 1432.67 597.568 1423.13 597.568ZM1516.43 596V508.584L1523.29 515.64H1480.76V490.552H1582.48V515.64H1539.95L1546.81 508.584V596H1516.43Z" fill="#828282"/>
<path d="M360.815 339.8V274.4L558.815 7.99997H660.815L467.015 274.4L419.615 260.6H750.215V339.8H360.815ZM587.015 428V339.8L590.015 260.6V182H681.815V428H587.015ZM959.287 435.2C924.887 435.2 894.087 426.8 866.887 410C839.687 392.8 818.287 368 802.687 335.6C787.087 303.2 779.287 264 779.287 218C779.287 172 787.087 132.8 802.687 100.4C818.287 68 839.687 43.4 866.887 26.6C894.087 9.39999 924.887 0.799993 959.287 0.799993C994.087 0.799993 1024.89 9.39999 1051.69 26.6C1078.89 43.4 1100.29 68 1115.89 100.4C1131.49 132.8 1139.29 172 1139.29 218C1139.29 264 1131.49 303.2 1115.89 335.6C1100.29 368 1078.89 392.8 1051.69 410C1024.89 426.8 994.087 435.2 959.287 435.2ZM959.287 353C975.687 353 989.887 348.4 1001.89 339.2C1014.29 330 1023.89 315.4 1030.69 295.4C1037.89 275.4 1041.49 249.6 1041.49 218C1041.49 186.4 1037.89 160.6 1030.69 140.6C1023.89 120.6 1014.29 106 1001.89 96.8C989.887 87.6 975.687 83 959.287 83C943.287 83 929.087 87.6 916.687 96.8C904.687 106 895.087 120.6 887.887 140.6C881.087 160.6 877.687 186.4 877.687 218C877.687 249.6 881.087 275.4 887.887 295.4C895.087 315.4 904.687 330 916.687 339.2C929.087 348.4 943.287 353 959.287 353ZM1181.71 339.8V274.4L1379.71 7.99997H1481.71L1287.91 274.4L1240.51 260.6H1571.11V339.8H1181.71ZM1407.91 428V339.8L1410.91 260.6V182H1502.71V428H1407.91Z" fill="#B596FF"/>
<path d="M357.876 480.4C354.976 480.4 352.393 479.817 350.126 478.65C347.86 477.45 346.076 475.8 344.776 473.7C343.51 471.6 342.876 469.217 342.876 466.55C342.876 463.85 343.51 461.467 344.776 459.4C346.076 457.3 347.86 455.667 350.126 454.5C352.393 453.3 354.976 452.7 357.876 452.7C360.71 452.7 363.176 453.3 365.276 454.5C367.376 455.667 368.926 457.35 369.926 459.55L363.876 462.8C363.176 461.533 362.293 460.6 361.226 460C360.193 459.4 359.06 459.1 357.826 459.1C356.493 459.1 355.293 459.4 354.226 460C353.16 460.6 352.31 461.45 351.676 462.55C351.076 463.65 350.776 464.983 350.776 466.55C350.776 468.117 351.076 469.45 351.676 470.55C352.31 471.65 353.16 472.5 354.226 473.1C355.293 473.7 356.493 474 357.826 474C359.06 474 360.193 473.717 361.226 473.15C362.293 472.55 363.176 471.6 363.876 470.3L369.926 473.6C368.926 475.767 367.376 477.45 365.276 478.65C363.176 479.817 360.71 480.4 357.876 480.4ZM380.367 480V457.7L382.117 459.5H371.267V453.1H397.217V459.5H386.367L388.117 457.7V480H380.367ZM417.225 480.4C414.958 480.4 412.975 479.9 411.275 478.9C409.575 477.9 408.242 476.383 407.275 474.35C406.342 472.283 405.875 469.683 405.875 466.55C405.875 463.383 406.325 460.783 407.225 458.75C408.125 456.717 409.425 455.2 411.125 454.2C412.825 453.2 414.858 452.7 417.225 452.7C419.758 452.7 422.025 453.283 424.025 454.45C426.058 455.583 427.658 457.183 428.825 459.25C430.025 461.317 430.625 463.75 430.625 466.55C430.625 469.383 430.025 471.833 428.825 473.9C427.658 475.967 426.058 477.567 424.025 478.7C422.025 479.833 419.758 480.4 417.225 480.4ZM401.325 489.7V453.1H408.775V458.6L408.625 466.6L409.125 474.55V489.7H401.325ZM415.875 474C417.175 474 418.325 473.7 419.325 473.1C420.358 472.5 421.175 471.65 421.775 470.55C422.408 469.417 422.725 468.083 422.725 466.55C422.725 464.983 422.408 463.65 421.775 462.55C421.175 461.45 420.358 460.6 419.325 460C418.325 459.4 417.175 459.1 415.875 459.1C414.575 459.1 413.408 459.4 412.375 460C411.342 460.6 410.525 461.45 409.925 462.55C409.325 463.65 409.025 464.983 409.025 466.55C409.025 468.083 409.325 469.417 409.925 470.55C410.525 471.65 411.342 472.5 412.375 473.1C413.408 473.7 414.575 474 415.875 474ZM451.752 480V474.75L451.252 473.6V464.2C451.252 462.533 450.736 461.233 449.702 460.3C448.702 459.367 447.152 458.9 445.052 458.9C443.619 458.9 442.202 459.133 440.802 459.6C439.436 460.033 438.269 460.633 437.302 461.4L434.502 455.95C435.969 454.917 437.736 454.117 439.802 453.55C441.869 452.983 443.969 452.7 446.102 452.7C450.202 452.7 453.386 453.667 455.652 455.6C457.919 457.533 459.052 460.55 459.052 464.65V480H451.752ZM443.552 480.4C441.452 480.4 439.652 480.05 438.152 479.35C436.652 478.617 435.502 477.633 434.702 476.4C433.902 475.167 433.502 473.783 433.502 472.25C433.502 470.65 433.886 469.25 434.652 468.05C435.452 466.85 436.702 465.917 438.402 465.25C440.102 464.55 442.319 464.2 445.052 464.2H452.202V468.75H445.902C444.069 468.75 442.802 469.05 442.102 469.65C441.436 470.25 441.102 471 441.102 471.9C441.102 472.9 441.486 473.7 442.252 474.3C443.052 474.867 444.136 475.15 445.502 475.15C446.802 475.15 447.969 474.85 449.002 474.25C450.036 473.617 450.786 472.7 451.252 471.5L452.452 475.1C451.886 476.833 450.852 478.15 449.352 479.05C447.852 479.95 445.919 480.4 443.552 480.4ZM465.828 480V453.1H473.578V463.6H485.278V453.1H493.078V480H485.278V469.95H473.578V480H465.828ZM500.545 480V453.1H508.295V469.1L521.395 453.1H528.545V480H520.795V464L507.745 480H500.545ZM536.043 480V453.1H543.793V473.6H554.643V453.1H562.443V480H536.043ZM559.093 485.8V479.9L560.893 480H554.643V473.6H566.343V485.8H559.093ZM587.348 480V474.75L586.848 473.6V464.2C586.848 462.533 586.331 461.233 585.298 460.3C584.298 459.367 582.748 458.9 580.648 458.9C579.215 458.9 577.798 459.133 576.398 459.6C575.031 460.033 573.865 460.633 572.898 461.4L570.098 455.95C571.565 454.917 573.331 454.117 575.398 453.55C577.465 452.983 579.565 452.7 581.698 452.7C585.798 452.7 588.981 453.667 591.248 455.6C593.515 457.533 594.648 460.55 594.648 464.65V480H587.348ZM579.148 480.4C577.048 480.4 575.248 480.05 573.748 479.35C572.248 478.617 571.098 477.633 570.298 476.4C569.498 475.167 569.098 473.783 569.098 472.25C569.098 470.65 569.481 469.25 570.248 468.05C571.048 466.85 572.298 465.917 573.998 465.25C575.698 464.55 577.915 464.2 580.648 464.2H587.798V468.75H581.498C579.665 468.75 578.398 469.05 577.698 469.65C577.031 470.25 576.698 471 576.698 471.9C576.698 472.9 577.081 473.7 577.848 474.3C578.648 474.867 579.731 475.15 581.098 475.15C582.398 475.15 583.565 474.85 584.598 474.25C585.631 473.617 586.381 472.7 586.848 471.5L588.048 475.1C587.481 476.833 586.448 478.15 584.948 479.05C583.448 479.95 581.515 480.4 579.148 480.4Z" fill="#828282"/>
</svg>
