<svg width="1920" height="1080" viewBox="0 0 1920 1080" fill="none" xmlns="http://www.w3.org/2000/svg">
<g clip-path="url(#clip0_1297_3202)">
<ellipse cx="100.312" cy="130.165" rx="100.312" ry="130.165" transform="matrix(-0.707107 -0.707107 -0.707107 0.707107 292.242 942.377)" fill="white"/>
<ellipse cx="100.312" cy="130.165" rx="100.312" ry="130.165" transform="matrix(-0.707107 -0.707107 -0.707107 0.707107 269.678 757.822)" fill="white"/>
<ellipse cx="100.312" cy="130.165" rx="100.312" ry="130.165" transform="matrix(-0.707107 -0.707107 -0.707107 0.707107 476.797 964.94)" fill="white"/>
<ellipse cx="70.2182" cy="91.1155" rx="70.2182" ry="91.1155" transform="matrix(-0.707107 -0.707107 -0.707107 0.707107 666.891 845.778)" fill="white"/>
<ellipse cx="70.2182" cy="91.1155" rx="70.2182" ry="91.1155" transform="matrix(-0.707107 -0.707107 -0.707107 0.707107 374.773 527.889)" fill="white"/>
<path d="M-71.0733 1128.56C-70.598 1123.4 -98.4848 978.251 -132.172 818.39C-142.566 769.063 -150.377 727.949 -149.674 727.245C-148.971 726.542 -123.344 706.672 -92.7209 682.884C138.699 504.348 315.892 401.984 373.646 413.302C387.315 416.183 390.373 419.24 393.019 433.144C398.325 462.372 373.233 535.312 335.816 598.273L324.004 618.357L334.405 625.944C388.858 665.387 442.517 718.576 471.167 762.236C479.436 775.196 487.021 785.596 487.851 785.487C488.68 785.378 505.388 779.103 524.692 771.67C591.22 745.794 652.887 730.536 678.949 733.615C685.774 734.342 693.047 737.862 697.904 742.72C704.919 749.735 705.546 752.706 703.164 767.68C696.089 813.608 632.361 920.147 528.918 1059.21C463.848 1146.58 376.304 1254.63 370.142 1255.04C368.719 1255.02 316.914 1240.27 255.225 1221.73C113.172 1179.59 118.467 1181.13 45.54 1159.8C11.8158 1150 -27.2663 1142.31 -39.4017 1138.62C-51.539 1134.93 -71.0733 1128.56 -71.0733 1128.56ZM308.857 493.92C307.38 494.319 301.486 508.126 296.329 524.076C290.937 540.261 280.832 564.397 273.985 577.719C262.551 599.588 261.043 607.93 268.721 605.289C275.569 602.756 295.156 562.304 307.48 524.439C315.731 498.918 316.12 491.333 308.857 493.92ZM593.038 807.652C547.033 818.402 492.022 840.316 492.875 847.736C493.713 853.733 496.614 853.351 518.678 843.519C543.986 832.241 577.364 821.527 595.832 818.888C603.527 817.671 611.15 815.444 612.792 813.802C619.124 807.47 608.356 804.208 593.038 807.652ZM241.438 525.003C239.726 525.637 236.992 535.566 235.048 547.225C233.157 558.468 228.54 574.958 224.546 583.628C216.613 600.555 216.638 608.085 224.3 604.021C231.313 600.246 241.112 575.335 245.455 550.127C249.376 529.657 248.234 522.886 241.438 525.003ZM550.263 863.379C525.29 867.487 503.789 874.598 501.889 879.734C499.358 886.584 505.121 887.656 517.216 882.396C524.12 879.45 539.436 876.004 551.454 874.419C572.174 871.687 579.007 867.731 573.611 862.335C572.352 861.077 561.687 861.669 550.263 863.379ZM345.394 908.517C296.429 898.482 237.451 947.387 233.786 1001.42C230.545 1050.71 273.955 1078.17 323.702 1057.56C346.072 1048.5 367.446 1030.01 378.139 1010.68C386.737 994.887 392.814 965.786 390.239 952.892C385.895 930.253 368.806 913.165 345.394 908.517ZM137.706 701.765C110.026 697.069 81.9247 707.901 57.5339 732.292C32.6738 757.152 23.0328 785.502 29.058 815.45C38.608 863.462 101.733 872.647 146.703 832.716C201.067 784.826 195.859 711.607 137.706 701.765ZM153.142 899.665C146.802 899.89 140.06 901.594 138.184 903.469C129.976 911.678 126.297 927.231 129.576 939.42C132.495 951.252 132.095 952.73 123.887 960.938C115.445 969.38 113.553 969.833 91.1824 968.102C71.4213 966.635 67.2237 967.595 66.2079 972.209C64.7938 978.301 64.4335 977.941 94.0999 979.933C108.223 980.92 110.022 982.719 108.403 991.891C107.857 996.035 107.321 1006.29 107.65 1014.59C108.028 1027.16 109.123 1029.67 113.323 1028.7C117.701 1027.92 119.006 1022.66 119.737 1003.22C120.309 980.345 120.998 978.217 129.91 969.306C139.29 959.925 140.356 959.581 153.61 962.515C190.04 970.335 204.154 938.951 176.689 911.016C166.435 900.762 162.979 899.183 153.142 899.665Z" fill="black"/>
<path d="M350.301 966.425C341.193 973.734 340.09 975.915 340.711 983.571C341.203 990.631 342.713 993.08 348.061 994.206C351.807 995.139 354.794 997.187 354.63 998.43C354.232 999.909 348.205 1007.01 340.934 1014.29C317.012 1038.21 290.187 1040.93 273.894 1020.89C258.808 1002.52 262.696 979.2 284.272 957.624C306.554 935.343 329.399 931.924 349.029 948.27L360.581 957.944L350.301 966.425Z" fill="black"/>
<path d="M150.587 751.701C149.595 753.053 145.084 757.924 141.042 762.327C130.667 773.059 131.421 787.416 142.282 788.426C148.1 789.086 148.405 789.859 144.63 796.871C137.946 808.952 131.075 814.745 115.321 821.504C96.0872 829.945 84.3977 829.043 71.713 818.704C53.7015 803.976 54.0795 779.496 72.9593 755.22C82.7773 742.525 105.654 731.158 120.893 731.388C130.621 731.735 153.98 747.59 150.587 751.701Z" fill="black"/>
<path d="M87.1276 775.981L88.9219 774.743L99.9792 775.131L101.91 777.929L90.9325 777.656L90.4137 776.094L96.6728 785.164L94.4999 786.664L87.1276 775.981ZM88.9904 783.856L91.4102 782.187L93.6398 780.769L95.7962 779.281L97.5342 781.8L90.7852 786.457L88.9904 783.856ZM95.8409 794.206C95.1896 793.262 94.8369 792.258 94.7829 791.194C94.7398 790.122 95.015 789.065 95.6086 788.024C96.2021 786.983 97.1299 786.026 98.3919 785.156C99.6539 784.285 100.877 783.756 102.061 783.571C103.245 783.386 104.326 783.507 105.301 783.935C106.288 784.356 107.107 785.038 107.759 785.982C108.417 786.936 108.765 787.944 108.8 789.005C108.854 790.069 108.584 791.122 107.991 792.164C107.397 793.205 106.47 794.161 105.208 795.032C103.946 795.903 102.722 796.431 101.538 796.617C100.354 796.802 99.2684 796.684 98.2816 796.264C97.3133 795.847 96.4997 795.161 95.8409 794.206ZM98.096 792.65C98.4065 793.1 98.8016 793.402 99.2811 793.557C99.7683 793.723 100.351 793.71 101.028 793.518C101.713 793.337 102.489 792.947 103.356 792.349C104.223 791.751 104.863 791.163 105.275 790.587C105.695 790.022 105.914 789.482 105.931 788.968C105.957 788.465 105.814 787.988 105.503 787.538C105.201 787.099 104.805 786.796 104.318 786.63C103.839 786.475 103.256 786.488 102.571 786.67C101.894 786.862 101.122 787.257 100.255 787.855C99.3879 788.453 98.7445 789.035 98.3245 789.6C97.9121 790.177 97.6933 790.716 97.6681 791.22C97.6505 791.734 97.7931 792.211 98.096 792.65ZM102.669 798.502L104.463 797.264L115.521 797.652L117.452 800.451L106.474 800.177L105.955 798.616L112.214 807.686L110.042 809.185L102.669 798.502ZM104.532 806.378L106.952 804.708L109.181 803.291L111.338 801.803L113.076 804.321L106.327 808.978L104.532 806.378Z" fill="#B596FF"/>
<path d="M294.128 984.981L295.922 983.743L306.979 984.131L308.91 986.929L297.932 986.656L297.414 985.094L303.673 994.164L301.5 995.664L294.128 984.981ZM295.99 992.856L298.41 991.187L300.64 989.769L302.796 988.281L304.534 990.8L297.785 995.457L295.99 992.856ZM302.841 1003.21C302.19 1002.26 301.837 1001.26 301.783 1000.19C301.74 999.122 302.015 998.065 302.609 997.024C303.202 995.983 304.13 995.026 305.392 994.156C306.654 993.285 307.877 992.756 309.061 992.571C310.245 992.386 311.326 992.507 312.301 992.935C313.288 993.356 314.107 994.038 314.759 994.982C315.417 995.936 315.765 996.944 315.8 998.005C315.854 999.069 315.584 1000.12 314.991 1001.16C314.397 1002.21 313.47 1003.16 312.208 1004.03C310.946 1004.9 309.722 1005.43 308.538 1005.62C307.354 1005.8 306.268 1005.68 305.282 1005.26C304.313 1004.85 303.5 1004.16 302.841 1003.21ZM305.096 1001.65C305.406 1002.1 305.802 1002.4 306.281 1002.56C306.768 1002.72 307.351 1002.71 308.028 1002.52C308.713 1002.34 309.489 1001.95 310.356 1001.35C311.223 1000.75 311.863 1000.16 312.275 999.587C312.695 999.022 312.914 998.482 312.931 997.968C312.957 997.465 312.814 996.988 312.503 996.538C312.2 996.099 311.805 995.796 311.318 995.63C310.839 995.475 310.256 995.488 309.571 995.67C308.894 995.862 308.122 996.257 307.255 996.855C306.388 997.453 305.744 998.035 305.324 998.6C304.912 999.177 304.693 999.716 304.668 1000.22C304.65 1000.73 304.793 1001.21 305.096 1001.65ZM309.669 1007.5L311.463 1006.26L322.521 1006.65L324.452 1009.45L313.474 1009.18L312.955 1007.62L319.214 1016.69L317.042 1018.19L309.669 1007.5ZM311.532 1015.38L313.952 1013.71L316.181 1012.29L318.338 1010.8L320.076 1013.32L313.327 1017.98L311.532 1015.38Z" fill="#B596FF"/>
</g>
<defs>
<clipPath id="clip0_1297_3202">
<rect width="1920" height="1080" fill="white"/>
</clipPath>
</defs>
</svg>
