<svg width="1920" height="1080" viewBox="0 0 1920 1080" fill="none" xmlns="http://www.w3.org/2000/svg">
<g clip-path="url(#clip0_1367_3072)">
<ellipse cx="100.312" cy="111.872" rx="100.312" ry="111.872" transform="matrix(-0.707107 -0.707107 -0.707107 0.707107 294.571 940.049)" fill="white"/>
<ellipse cx="100.312" cy="111.872" rx="100.312" ry="111.872" transform="matrix(-0.707107 -0.707107 -0.707107 0.707107 260.624 766.877)" fill="white"/>
<ellipse cx="100.312" cy="111.872" rx="100.312" ry="111.872" transform="matrix(-0.707107 -0.707107 -0.707107 0.707107 467.743 973.996)" fill="white"/>
<ellipse cx="70.2182" cy="78.3101" rx="70.2182" ry="78.3101" transform="matrix(-0.707107 -0.707107 -0.707107 0.707107 636.105 876.564)" fill="white"/>
<ellipse cx="70.2182" cy="78.3101" rx="70.2182" ry="78.3101" transform="matrix(-0.707107 -0.707107 -0.707107 0.707107 342.176 560.486)" fill="white"/>
<path d="M-30.1315 1087.62C-30.0518 1082.86 -66.1789 945.945 -108.733 794.951C-121.863 748.36 -132.014 709.585 -131.409 708.981C-130.805 708.377 -108.375 691.703 -81.5756 671.739C121.036 522.011 278.585 439.291 333.076 453.872C345.987 457.511 349.044 460.568 352.482 473.681C359.469 501.228 341.265 567.279 310.902 623.187L301.332 641.03L311.535 648.815C364.933 689.312 418.559 742.535 448.264 785.14C456.862 797.769 464.645 807.972 465.409 807.929C466.172 807.886 481.265 803.225 498.69 797.672C558.725 778.289 614.986 768.436 639.434 773.13C645.831 774.286 652.84 778.07 657.697 782.927C664.712 789.943 665.503 792.749 664.341 806.503C660.99 848.707 609.227 943.281 522.825 1065.3C468.467 1141.96 394.668 1236.27 388.967 1236.21C387.643 1236.1 338.442 1218.74 279.785 1197.17C144.753 1148.01 149.784 1149.82 80.4829 1124.86C48.4395 1113.37 11.5636 1103.48 0.0213503 1099.19C-11.5225 1094.91 -30.1315 1087.62 -30.1315 1087.62ZM278.505 524.273C277.16 524.54 272.65 536.962 268.976 551.429C265.101 566.098 257.401 587.827 251.971 599.732C242.878 619.261 242.062 626.911 249.015 624.995C255.204 623.121 270.572 586.888 279.369 552.55C285.247 529.402 285.076 522.378 278.505 524.273ZM564.762 835.928C522.745 842.689 473.14 859.198 474.455 866.157C475.655 871.791 478.326 871.64 498.148 864.049C520.885 855.342 551.164 847.727 568.149 846.571C575.218 845.98 582.149 844.445 583.56 843.034C589.002 837.592 578.762 833.802 564.762 835.928ZM218.008 548.434C216.461 548.902 214.616 557.942 213.628 568.645C212.66 578.965 209.526 593.972 206.422 601.752C200.236 616.933 200.789 623.935 207.627 620.695C213.881 617.678 221.242 595.206 223.508 572.075C225.714 553.318 224.177 546.943 218.008 548.434ZM528.909 884.733C505.98 886.797 486.489 891.898 485.084 896.54C483.212 902.73 488.645 904.132 499.52 900.092C505.732 897.838 519.731 895.71 530.792 895.081C549.865 893.997 555.939 890.8 550.543 885.403C549.284 884.145 539.411 883.946 528.909 884.733ZM341.608 912.303C295.378 899.532 243.982 940.856 244.371 990.832C244.821 1036.43 287.111 1065.01 331.914 1049.35C352.075 1042.5 370.648 1026.81 379.231 1009.59C386.115 995.509 389.72 968.88 386.42 956.711C380.791 935.358 363.702 918.269 341.608 912.303ZM133.986 705.486C107.921 699.175 82.5556 707.27 61.5927 728.233C40.2264 749.599 33.2551 775.28 40.9613 803.547C53.2141 848.856 112.548 861.832 151.553 827.866C198.731 787.162 188.744 718.722 133.986 705.486ZM162.243 890.564C156.365 890.328 150.217 891.437 148.604 893.05C141.55 900.104 139.222 914.306 143.127 925.869C146.673 937.075 146.405 938.421 139.35 945.475C132.095 952.731 130.368 953.019 109.447 949.837C90.9716 947.085 87.1364 947.683 86.5162 951.9C85.6296 957.466 85.2693 957.105 112.991 961.042C126.191 962.952 127.99 964.751 127.129 973.165C126.913 976.979 127.134 986.472 128.025 994.216C129.259 1005.93 130.453 1008.34 134.29 1007.74C138.306 1007.32 139.149 1002.52 138.463 984.498C137.388 963.267 137.879 961.337 145.538 953.678C153.6 945.616 154.566 945.37 167.096 949.03C201.515 958.861 212.431 930.674 184.934 902.771C174.68 892.518 171.355 890.806 162.243 890.564Z" fill="black"/>
<path d="M350.24 966.487C342.286 972.642 341.413 974.592 342.528 981.754C343.482 988.353 345.057 990.735 350.109 992.158C353.657 993.288 356.579 995.403 356.514 996.546C356.247 997.894 351.143 1004.08 344.894 1010.33C324.334 1030.88 299.585 1031.53 283.029 1011.75C267.712 993.612 269.689 972.208 288.233 953.664C307.382 934.515 328.382 932.941 347.782 949.518L359.201 959.324L350.24 966.487Z" fill="black"/>
<path d="M149.471 752.817C148.643 754.005 144.792 758.217 141.343 762.026C132.452 771.275 134.161 784.677 144.33 786.379C149.786 787.401 150.124 788.141 147.107 794.395C141.741 805.157 135.76 810.06 121.588 815.238C104.299 821.734 93.3676 820.074 80.8476 809.57C63.0669 794.611 61.6981 771.878 77.5453 750.634C85.7813 739.521 106.252 730.561 120.436 731.845C129.505 732.852 152.336 749.234 149.471 752.817Z" fill="black"/>
<path d="M86.4473 780.17L88.1757 778.977L88.4407 778.552L91.5354 776.416C92.0841 776.037 92.3947 775.572 92.4672 775.02C92.5473 774.478 92.3488 773.862 91.8717 773.171C91.546 772.699 91.1474 772.285 90.6756 771.931C90.2225 771.579 89.7599 771.331 89.2879 771.187L90.446 769.027C91.1194 769.275 91.7842 769.675 92.4402 770.227C93.0963 770.778 93.6667 771.405 94.1514 772.108C95.0828 773.458 95.4878 774.725 95.3663 775.911C95.2448 777.096 94.5091 778.155 93.1593 779.086L88.1058 782.573L86.4473 780.17ZM84.4527 777.561C83.9756 776.87 83.6819 776.198 83.5715 775.545C83.4722 774.885 83.5346 774.283 83.7589 773.739C83.9832 773.196 84.3477 772.75 84.8525 772.401C85.3793 772.038 85.9273 771.846 86.4965 771.826C87.0734 771.816 87.6646 772.016 88.2703 772.424C88.887 772.825 89.5058 773.475 90.1268 774.375L91.7512 776.729L90.2533 777.762L88.822 775.688C88.4054 775.085 88.0189 774.736 87.6623 774.642C87.3134 774.559 86.9907 774.619 86.6944 774.824C86.3652 775.051 86.1889 775.359 86.1656 775.748C86.1608 776.14 86.3136 776.561 86.6241 777.011C86.9194 777.439 87.2833 777.755 87.7155 777.958C88.1588 778.155 88.631 778.193 89.1321 778.074L88.2195 779.287C87.5201 779.495 86.8519 779.454 86.2148 779.164C85.5777 778.875 84.9904 778.341 84.4527 777.561ZM92.4215 789.109C91.7627 788.154 91.3678 787.171 91.2369 786.16C91.117 785.141 91.2551 784.179 91.6511 783.274C92.0547 782.38 92.6954 781.63 93.5734 781.024C94.4622 780.411 95.3908 780.078 96.3589 780.025C97.3456 779.976 98.2885 780.192 99.1876 780.673C100.098 781.147 100.882 781.861 101.541 782.816C102.185 783.749 102.547 784.697 102.629 785.661C102.722 786.617 102.52 787.51 102.023 788.339L99.5789 787.086C99.8369 786.568 99.9435 786.065 99.8987 785.577C99.8614 785.101 99.7027 784.659 99.4225 784.253C99.1196 783.814 98.7482 783.488 98.3083 783.273C97.8685 783.058 97.3955 782.971 96.8895 783.013C96.391 783.065 95.8839 783.269 95.3681 783.625C94.8524 783.981 94.4816 784.383 94.2557 784.83C94.0375 785.288 93.9508 785.761 93.9956 786.249C94.0404 786.736 94.2142 787.2 94.5172 787.639C94.7974 788.045 95.1481 788.353 95.5694 788.565C96.0093 788.78 96.5227 788.855 97.1098 788.79L97.3978 791.531C96.4573 791.694 95.551 791.566 94.6788 791.148C93.8177 790.721 93.0652 790.042 92.4215 789.109ZM100.025 799.846L101.754 798.653L102.019 798.228L105.113 796.092C105.662 795.713 105.973 795.248 106.045 794.696C106.125 794.154 105.927 793.538 105.45 792.847C105.124 792.375 104.725 791.961 104.254 791.607C103.801 791.255 103.338 791.007 102.866 790.863L104.024 788.703C104.698 788.951 105.362 789.351 106.018 789.903C106.674 790.454 107.245 791.081 107.729 791.784C108.661 793.134 109.066 794.401 108.944 795.587C108.823 796.772 108.087 797.831 106.737 798.762L101.684 802.249L100.025 799.846ZM98.0308 797.237C97.5537 796.546 97.26 795.874 97.1496 795.221C97.0503 794.561 97.1127 793.959 97.337 793.415C97.5613 792.871 97.9259 792.426 98.4307 792.077C98.9574 791.714 99.5054 791.522 100.075 791.502C100.651 791.492 101.243 791.692 101.848 792.1C102.465 792.501 103.084 793.151 103.705 794.051L105.329 796.405L103.831 797.438L102.4 795.364C101.984 794.761 101.597 794.412 101.24 794.318C100.891 794.235 100.569 794.295 100.273 794.5C99.9433 794.727 99.767 795.035 99.7437 795.424C99.7389 795.816 99.8917 796.237 100.202 796.687C100.498 797.115 100.861 797.431 101.294 797.634C101.737 797.831 102.209 797.869 102.71 797.75L101.798 798.963C101.098 799.171 100.43 799.13 99.7929 798.84C99.1558 798.551 98.5685 798.017 98.0308 797.237ZM103.223 804.48L112.079 798.369L118.157 807.175L109.301 813.287L107.529 810.719L114.854 805.664L114.675 806.638L111.335 801.798L112.309 801.977L104.984 807.032L103.223 804.48Z" fill="#B596FF"/>
<path d="M293.447 989.17L295.176 987.977L295.441 987.552L298.535 985.416C299.084 985.037 299.395 984.572 299.467 984.02C299.547 983.478 299.349 982.862 298.872 982.171C298.546 981.699 298.147 981.285 297.676 980.931C297.222 980.579 296.76 980.331 296.288 980.187L297.446 978.027C298.119 978.275 298.784 978.675 299.44 979.227C300.096 979.778 300.667 980.405 301.151 981.108C302.083 982.458 302.488 983.725 302.366 984.911C302.245 986.096 301.509 987.155 300.159 988.086L295.106 991.573L293.447 989.17ZM291.453 986.561C290.976 985.87 290.682 985.198 290.572 984.545C290.472 983.885 290.535 983.283 290.759 982.739C290.983 982.196 291.348 981.75 291.853 981.401C292.379 981.038 292.927 980.846 293.497 980.826C294.073 980.816 294.665 981.016 295.27 981.424C295.887 981.825 296.506 982.475 297.127 983.375L298.751 985.729L297.253 986.762L295.822 984.688C295.405 984.085 295.019 983.736 294.662 983.642C294.313 983.559 293.991 983.619 293.694 983.824C293.365 984.051 293.189 984.359 293.166 984.748C293.161 985.14 293.314 985.561 293.624 986.011C293.919 986.439 294.283 986.755 294.716 986.958C295.159 987.155 295.631 987.193 296.132 987.074L295.22 988.287C294.52 988.495 293.852 988.454 293.215 988.164C292.578 987.875 291.99 987.341 291.453 986.561ZM299.422 998.109C298.763 997.154 298.368 996.171 298.237 995.16C298.117 994.141 298.255 993.179 298.651 992.274C299.055 991.38 299.695 990.63 300.573 990.024C301.462 989.411 302.391 989.078 303.359 989.025C304.346 988.976 305.289 989.192 306.188 989.673C307.098 990.147 307.882 990.861 308.541 991.816C309.185 992.749 309.547 993.697 309.629 994.661C309.722 995.617 309.52 996.51 309.023 997.339L306.579 996.086C306.837 995.568 306.943 995.065 306.899 994.577C306.861 994.101 306.703 993.659 306.423 993.253C306.12 992.814 305.748 992.488 305.308 992.273C304.868 992.058 304.396 991.971 303.889 992.013C303.391 992.065 302.884 992.269 302.368 992.625C301.852 992.981 301.482 993.383 301.256 993.83C301.037 994.288 300.951 994.761 300.996 995.249C301.04 995.736 301.214 996.2 301.517 996.639C301.797 997.045 302.148 997.353 302.569 997.565C303.009 997.78 303.523 997.855 304.11 997.79L304.398 1000.53C303.457 1000.69 302.551 1000.57 301.679 1000.15C300.818 999.721 300.065 999.042 299.422 998.109ZM307.025 1008.85L308.754 1007.65L309.019 1007.23L312.113 1005.09C312.662 1004.71 312.973 1004.25 313.045 1003.7C313.125 1003.15 312.927 1002.54 312.45 1001.85C312.124 1001.37 311.725 1000.96 311.254 1000.61C310.801 1000.26 310.338 1000.01 309.866 999.863L311.024 997.703C311.698 997.951 312.362 998.351 313.018 998.903C313.674 999.454 314.245 1000.08 314.729 1000.78C315.661 1002.13 316.066 1003.4 315.944 1004.59C315.823 1005.77 315.087 1006.83 313.737 1007.76L308.684 1011.25L307.025 1008.85ZM305.031 1006.24C304.554 1005.55 304.26 1004.87 304.15 1004.22C304.05 1003.56 304.113 1002.96 304.337 1002.42C304.561 1001.87 304.926 1001.43 305.431 1001.08C305.957 1000.71 306.505 1000.52 307.075 1000.5C307.651 1000.49 308.243 1000.69 308.848 1001.1C309.465 1001.5 310.084 1002.15 310.705 1003.05L312.329 1005.4L310.831 1006.44L309.4 1004.36C308.984 1003.76 308.597 1003.41 308.24 1003.32C307.891 1003.23 307.569 1003.3 307.273 1003.5C306.943 1003.73 306.767 1004.03 306.744 1004.42C306.739 1004.82 306.892 1005.24 307.202 1005.69C307.498 1006.11 307.861 1006.43 308.294 1006.63C308.737 1006.83 309.209 1006.87 309.71 1006.75L308.798 1007.96C308.098 1008.17 307.43 1008.13 306.793 1007.84C306.156 1007.55 305.568 1007.02 305.031 1006.24ZM310.223 1013.48L319.079 1007.37L325.157 1016.18L316.301 1022.29L314.529 1019.72L321.854 1014.66L321.675 1015.64L318.335 1010.8L319.309 1010.98L311.984 1016.03L310.223 1013.48Z" fill="#B596FF"/>
</g>
<defs>
<clipPath id="clip0_1367_3072">
<rect width="1920" height="1080" fill="white"/>
</clipPath>
</defs>
</svg>
