<svg width="1920" height="565" viewBox="0 0 1920 565" fill="none" xmlns="http://www.w3.org/2000/svg">
<path d="M430.027 155V63.54H520.977V155H494.457V79.35L500.407 85.3H450.427L456.377 79.35V155H430.027ZM600.294 156.36C592.588 156.36 585.844 154.66 580.064 151.26C574.284 147.86 569.751 142.703 566.464 135.79C563.291 128.763 561.704 119.923 561.704 109.27C561.704 98.5033 563.234 89.6633 566.294 82.75C569.354 75.8367 573.774 70.68 579.554 67.28C585.334 63.88 592.248 62.18 600.294 62.18C608.908 62.18 616.614 64.1633 623.414 68.13C630.328 71.9833 635.768 77.4233 639.734 84.45C643.814 91.4767 645.854 99.75 645.854 109.27C645.854 118.903 643.814 127.233 639.734 134.26C635.768 141.287 630.328 146.727 623.414 150.58C616.614 154.433 608.908 156.36 600.294 156.36ZM546.234 187.98V63.54H571.564V82.24L571.054 109.44L572.754 136.47V187.98H546.234ZM595.704 134.6C600.124 134.6 604.034 133.58 607.434 131.54C610.948 129.5 613.724 126.61 615.764 122.87C617.918 119.017 618.994 114.483 618.994 109.27C618.994 103.943 617.918 99.41 615.764 95.67C613.724 91.93 610.948 89.04 607.434 87C604.034 84.96 600.124 83.94 595.704 83.94C591.284 83.94 587.318 84.96 583.804 87C580.291 89.04 577.514 91.93 575.474 95.67C573.434 99.41 572.414 103.943 572.414 109.27C572.414 114.483 573.434 119.017 575.474 122.87C577.514 126.61 580.291 129.5 583.804 131.54C587.318 133.58 591.284 134.6 595.704 134.6ZM664.441 155V63.54H690.791V117.94L735.331 63.54H759.641V155H733.291V100.6L688.921 155H664.441ZM785.135 155V63.54H811.485V99.24H851.265V63.54H877.785V155H851.265V120.83H811.485V155H785.135ZM946.012 156.36C936.265 156.36 927.595 154.32 920.002 150.24C912.522 146.16 906.572 140.607 902.152 133.58C897.845 126.44 895.692 118.337 895.692 109.27C895.692 100.09 897.845 91.9867 902.152 84.96C906.572 77.82 912.522 72.2667 920.002 68.3C927.595 64.22 936.265 62.18 946.012 62.18C955.645 62.18 964.259 64.22 971.852 68.3C979.445 72.2667 985.395 77.7633 989.702 84.79C994.009 91.8167 996.162 99.9767 996.162 109.27C996.162 118.337 994.009 126.44 989.702 133.58C985.395 140.607 979.445 146.16 971.852 150.24C964.259 154.32 955.645 156.36 946.012 156.36ZM946.012 134.6C950.432 134.6 954.399 133.58 957.912 131.54C961.425 129.5 964.202 126.61 966.242 122.87C968.282 119.017 969.302 114.483 969.302 109.27C969.302 103.943 968.282 99.41 966.242 95.67C964.202 91.93 961.425 89.04 957.912 87C954.399 84.96 950.432 83.94 946.012 83.94C941.592 83.94 937.625 84.96 934.112 87C930.599 89.04 927.765 91.93 925.612 95.67C923.572 99.41 922.552 103.943 922.552 109.27C922.552 114.483 923.572 119.017 925.612 122.87C927.765 126.61 930.599 129.5 934.112 131.54C937.625 133.58 941.592 134.6 946.012 134.6ZM1057.92 156.36C1048.06 156.36 1039.28 154.377 1031.57 150.41C1023.87 146.33 1017.8 140.72 1013.38 133.58C1009.08 126.44 1006.92 118.337 1006.92 109.27C1006.92 100.09 1009.08 91.9867 1013.38 84.96C1017.8 77.82 1023.87 72.2667 1031.57 68.3C1039.28 64.22 1048.06 62.18 1057.92 62.18C1067.56 62.18 1075.94 64.22 1083.08 68.3C1090.22 72.2667 1095.49 77.99 1098.89 85.47L1078.32 96.52C1075.94 92.2133 1072.94 89.04 1069.31 87C1065.8 84.96 1061.95 83.94 1057.75 83.94C1053.22 83.94 1049.14 84.96 1045.51 87C1041.89 89.04 1039 91.93 1036.84 95.67C1034.8 99.41 1033.78 103.943 1033.78 109.27C1033.78 114.597 1034.8 119.13 1036.84 122.87C1039 126.61 1041.89 129.5 1045.51 131.54C1049.14 133.58 1053.22 134.6 1057.75 134.6C1061.95 134.6 1065.8 133.637 1069.31 131.71C1072.94 129.67 1075.94 126.44 1078.32 122.02L1098.89 133.24C1095.49 140.607 1090.22 146.33 1083.08 150.41C1075.94 154.377 1067.56 156.36 1057.92 156.36ZM1115.01 155V63.54H1141.36V117.94L1185.9 63.54H1210.21V155H1183.86V100.6L1139.49 155H1115.01ZM1235.7 155V63.54H1263.41L1297.92 126.1H1286.87L1323.76 63.54H1348.58L1348.92 155H1324.95V90.74L1329.03 93.46L1297.58 146.16H1286.36L1254.74 91.59L1259.67 90.4V155H1235.7ZM1465.99 156.36C1456.13 156.36 1447.35 154.377 1439.64 150.41C1431.93 146.33 1425.87 140.72 1421.45 133.58C1417.14 126.44 1414.99 118.337 1414.99 109.27C1414.99 100.09 1417.14 91.9867 1421.45 84.96C1425.87 77.82 1431.93 72.2667 1439.64 68.3C1447.35 64.22 1456.13 62.18 1465.99 62.18C1475.62 62.18 1484.01 64.22 1491.15 68.3C1498.29 72.2667 1503.56 77.99 1506.96 85.47L1486.39 96.52C1484.01 92.2133 1481.01 89.04 1477.38 87C1473.87 84.96 1470.01 83.94 1465.82 83.94C1461.29 83.94 1457.21 84.96 1453.58 87C1449.95 89.04 1447.06 91.93 1444.91 95.67C1442.87 99.41 1441.85 103.943 1441.85 109.27C1441.85 114.597 1442.87 119.13 1444.91 122.87C1447.06 126.61 1449.95 129.5 1453.58 131.54C1457.21 133.58 1461.29 134.6 1465.82 134.6C1470.01 134.6 1473.87 133.637 1477.38 131.71C1481.01 129.67 1484.01 126.44 1486.39 122.02L1506.96 133.24C1503.56 140.607 1498.29 146.33 1491.15 150.41C1484.01 154.377 1475.62 156.36 1465.99 156.36ZM1523.07 155V63.54H1569.82C1581.27 63.54 1590.22 65.6367 1596.68 69.83C1603.14 73.91 1606.37 79.69 1606.37 87.17C1606.37 94.65 1603.31 100.543 1597.19 104.85C1591.19 109.043 1583.2 111.14 1573.22 111.14L1575.94 105.02C1587.05 105.02 1595.32 107.06 1600.76 111.14C1606.32 115.22 1609.09 121.17 1609.09 128.99C1609.09 137.037 1606.03 143.383 1599.91 148.03C1593.79 152.677 1584.44 155 1571.86 155H1523.07ZM1547.38 136.98H1569.65C1574.53 136.98 1578.15 136.187 1580.53 134.6C1583.03 132.9 1584.27 130.35 1584.27 126.95C1584.27 123.437 1583.14 120.887 1580.87 119.3C1578.61 117.6 1575.04 116.75 1570.16 116.75H1547.38V136.98ZM1547.38 101.11H1567.44C1572.09 101.11 1575.55 100.26 1577.81 98.56C1580.19 96.86 1581.38 94.4233 1581.38 91.25C1581.38 87.9633 1580.19 85.5267 1577.81 83.94C1575.55 82.3533 1572.09 81.56 1567.44 81.56H1547.38V101.11ZM1671.67 156.36C1661.92 156.36 1653.25 154.32 1645.66 150.24C1638.18 146.16 1632.23 140.607 1627.81 133.58C1623.5 126.44 1621.35 118.337 1621.35 109.27C1621.35 100.09 1623.5 91.9867 1627.81 84.96C1632.23 77.82 1638.18 72.2667 1645.66 68.3C1653.25 64.22 1661.92 62.18 1671.67 62.18C1681.3 62.18 1689.91 64.22 1697.51 68.3C1705.1 72.2667 1711.05 77.7633 1715.36 84.79C1719.66 91.8167 1721.82 99.9767 1721.82 109.27C1721.82 118.337 1719.66 126.44 1715.36 133.58C1711.05 140.607 1705.1 146.16 1697.51 150.24C1689.91 154.32 1681.3 156.36 1671.67 156.36ZM1671.67 134.6C1676.09 134.6 1680.05 133.58 1683.57 131.54C1687.08 129.5 1689.86 126.61 1691.9 122.87C1693.94 119.017 1694.96 114.483 1694.96 109.27C1694.96 103.943 1693.94 99.41 1691.9 95.67C1689.86 91.93 1687.08 89.04 1683.57 87C1680.05 84.96 1676.09 83.94 1671.67 83.94C1667.25 83.94 1663.28 84.96 1659.77 87C1656.25 89.04 1653.42 91.93 1651.27 95.67C1649.23 99.41 1648.21 103.943 1648.21 109.27C1648.21 114.483 1649.23 119.017 1651.27 122.87C1653.42 126.61 1656.25 129.5 1659.77 131.54C1663.28 133.58 1667.25 134.6 1671.67 134.6ZM1740.06 155V63.54H1766.41V117.94L1810.95 63.54H1835.26V155H1808.91V100.6L1764.54 155H1740.06ZM846.229 293V201.54H872.579V255.94L917.119 201.54H941.429V293H915.079V238.6L870.709 293H846.229ZM997.032 294.7C1005.65 294.7 1013.35 293.567 1020.15 291.3C1027.07 288.92 1032.51 285.577 1036.47 281.27C1040.55 276.85 1042.59 271.693 1042.59 265.8C1042.59 258.887 1039.7 253.447 1033.92 249.48C1028.14 245.4 1020.21 243.36 1010.12 243.36L1009.44 248.63C1015.22 248.63 1020.44 247.667 1025.08 245.74C1029.73 243.7 1033.36 240.923 1035.96 237.41C1038.68 233.897 1040.04 229.93 1040.04 225.51C1040.04 219.957 1038.06 215.253 1034.09 211.4C1030.24 207.547 1024.91 204.6 1018.11 202.56C1011.31 200.52 1003.66 199.613 995.162 199.84C989.382 199.953 983.545 200.747 977.652 202.22C971.758 203.693 965.808 205.677 959.802 208.17L966.262 226.53C971.362 224.49 976.348 222.96 981.222 221.94C986.095 220.807 990.798 220.24 995.332 220.24C999.298 220.24 1002.59 220.637 1005.19 221.43C1007.8 222.11 1009.78 223.13 1011.14 224.49C1012.5 225.85 1013.18 227.493 1013.18 229.42C1013.18 231.233 1012.62 232.82 1011.48 234.18C1010.46 235.427 1008.88 236.39 1006.72 237.07C1004.57 237.75 1001.96 238.09 998.902 238.09H982.412V254.58H1001.11C1005.87 254.58 1009.5 255.373 1011.99 256.96C1014.49 258.433 1015.73 260.643 1015.73 263.59C1015.73 265.857 1014.94 267.783 1013.35 269.37C1011.77 270.957 1009.44 272.203 1006.38 273.11C1003.44 273.903 999.922 274.3 995.842 274.3C990.175 274.3 984.565 273.733 979.012 272.6C973.572 271.353 968.528 269.597 963.882 267.33L956.742 285.86C962.635 288.807 969.038 291.017 975.952 292.49C982.978 293.963 990.005 294.7 997.032 294.7ZM1061.55 293V201.54H1108.3C1119.75 201.54 1128.7 203.637 1135.16 207.83C1141.62 211.91 1144.85 217.69 1144.85 225.17C1144.85 232.65 1141.79 238.543 1135.67 242.85C1129.66 247.043 1121.67 249.14 1111.7 249.14L1114.42 243.02C1125.53 243.02 1133.8 245.06 1139.24 249.14C1144.79 253.22 1147.57 259.17 1147.57 266.99C1147.57 275.037 1144.51 281.383 1138.39 286.03C1132.27 290.677 1122.92 293 1110.34 293H1061.55ZM1085.86 274.98H1108.13C1113 274.98 1116.63 274.187 1119.01 272.6C1121.5 270.9 1122.75 268.35 1122.75 264.95C1122.75 261.437 1121.62 258.887 1119.35 257.3C1117.08 255.6 1113.51 254.75 1108.64 254.75H1085.86V274.98ZM1085.86 239.11H1105.92C1110.57 239.11 1114.02 238.26 1116.29 236.56C1118.67 234.86 1119.86 232.423 1119.86 229.25C1119.86 225.963 1118.67 223.527 1116.29 221.94C1114.02 220.353 1110.57 219.56 1105.92 219.56H1085.86V239.11ZM1167.3 293V201.54H1193.65V255.94L1238.19 201.54H1262.5V293H1236.15V238.6L1191.78 293H1167.3ZM1288 293V201.54H1314.35V237.24H1354.13V201.54H1380.65V293H1354.13V258.83H1314.35V293H1288ZM1450.74 294.36C1440.32 294.36 1431.14 292.32 1423.2 288.24C1415.38 284.16 1409.32 278.607 1405.01 271.58C1400.71 264.44 1398.55 256.337 1398.55 247.27C1398.55 238.09 1400.65 229.987 1404.84 222.96C1409.15 215.82 1414.99 210.267 1422.35 206.3C1429.72 202.22 1438.05 200.18 1447.34 200.18C1456.3 200.18 1464.34 202.107 1471.48 205.96C1478.74 209.7 1484.46 215.14 1488.65 222.28C1492.85 229.307 1494.94 237.75 1494.94 247.61C1494.94 248.63 1494.89 249.82 1494.77 251.18C1494.66 252.427 1494.55 253.617 1494.43 254.75H1420.14V239.28H1480.49L1470.29 243.87C1470.29 239.11 1469.33 234.973 1467.4 231.46C1465.48 227.947 1462.81 225.227 1459.41 223.3C1456.01 221.26 1452.05 220.24 1447.51 220.24C1442.98 220.24 1438.96 221.26 1435.44 223.3C1432.04 225.227 1429.38 228.003 1427.45 231.63C1425.53 235.143 1424.56 239.337 1424.56 244.21V248.29C1424.56 253.277 1425.64 257.697 1427.79 261.55C1430.06 265.29 1433.18 268.18 1437.14 270.22C1441.22 272.147 1445.98 273.11 1451.42 273.11C1456.3 273.11 1460.55 272.373 1464.17 270.9C1467.91 269.427 1471.31 267.217 1474.37 264.27L1488.48 279.57C1484.29 284.33 1479.02 288.013 1472.67 290.62C1466.33 293.113 1459.02 294.36 1450.74 294.36ZM1515.27 293V201.54H1541.62V237.24H1581.4V201.54H1607.92V293H1581.4V258.83H1541.62V293H1515.27ZM1633.31 293V201.54H1659.66V255.94L1704.2 201.54H1728.51V293H1702.16V238.6L1657.79 293H1633.31ZM1811.63 293V262.57L1815.37 266.82H1790.04C1776.9 266.82 1766.58 264.1 1759.1 258.66C1751.62 253.22 1747.88 245.4 1747.88 235.2C1747.88 224.32 1751.79 215.99 1759.61 210.21C1767.55 204.43 1778.2 201.54 1791.57 201.54H1835.26V293H1811.63ZM1746.52 293L1770.83 258.15H1797.86L1774.74 293H1746.52ZM1811.63 254.41V216.33L1815.37 223.13H1792.08C1786.64 223.13 1782.39 224.15 1779.33 226.19C1776.39 228.23 1774.91 231.517 1774.91 236.05C1774.91 244.777 1780.52 249.14 1791.74 249.14H1815.37L1811.63 254.41Z" fill="#B596FF"/>
<path d="M442.945 48.4C440.045 48.4 437.461 47.8167 435.195 46.65C432.928 45.45 431.145 43.8 429.845 41.7C428.578 39.6 427.945 37.2167 427.945 34.55C427.945 31.85 428.578 29.4667 429.845 27.4C431.145 25.3 432.928 23.6667 435.195 22.5C437.461 21.3 440.045 20.7 442.945 20.7C445.778 20.7 448.245 21.3 450.345 22.5C452.445 23.6667 453.995 25.35 454.995 27.55L448.945 30.8C448.245 29.5333 447.361 28.6 446.295 28C445.261 27.4 444.128 27.1 442.895 27.1C441.561 27.1 440.361 27.4 439.295 28C438.228 28.6 437.378 29.45 436.745 30.55C436.145 31.65 435.845 32.9833 435.845 34.55C435.845 36.1167 436.145 37.45 436.745 38.55C437.378 39.65 438.228 40.5 439.295 41.1C440.361 41.7 441.561 42 442.895 42C444.128 42 445.261 41.7167 446.295 41.15C447.361 40.55 448.245 39.6 448.945 38.3L454.995 41.6C453.995 43.7667 452.445 45.45 450.345 46.65C448.245 47.8167 445.778 48.4 442.945 48.4ZM472.543 48.4C469.476 48.4 466.776 47.8 464.443 46.6C462.143 45.4 460.359 43.7667 459.093 41.7C457.826 39.6 457.193 37.2167 457.193 34.55C457.193 31.85 457.809 29.4667 459.043 27.4C460.309 25.3 462.026 23.6667 464.193 22.5C466.359 21.3 468.809 20.7 471.543 20.7C474.176 20.7 476.543 21.2667 478.643 22.4C480.776 23.5 482.459 25.1 483.693 27.2C484.926 29.2667 485.543 31.75 485.543 34.65C485.543 34.95 485.526 35.3 485.493 35.7C485.459 36.0667 485.426 36.4167 485.393 36.75H463.543V32.2H481.293L478.293 33.55C478.293 32.15 478.009 30.9333 477.443 29.9C476.876 28.8667 476.093 28.0667 475.093 27.5C474.093 26.9 472.926 26.6 471.593 26.6C470.259 26.6 469.076 26.9 468.043 27.5C467.043 28.0667 466.259 28.8833 465.693 29.95C465.126 30.9833 464.843 32.2167 464.843 33.65V34.85C464.843 36.3167 465.159 37.6167 465.793 38.75C466.459 39.85 467.376 40.7 468.543 41.3C469.743 41.8667 471.143 42.15 472.743 42.15C474.176 42.15 475.426 41.9333 476.493 41.5C477.593 41.0667 478.593 40.4167 479.493 39.55L483.643 44.05C482.409 45.45 480.859 46.5333 478.993 47.3C477.126 48.0333 474.976 48.4 472.543 48.4ZM507.371 48.4C505.105 48.4 503.121 47.9 501.421 46.9C499.721 45.9 498.388 44.3833 497.421 42.35C496.488 40.2833 496.021 37.6833 496.021 34.55C496.021 31.3833 496.471 28.7833 497.371 26.75C498.271 24.7167 499.571 23.2 501.271 22.2C502.971 21.2 505.005 20.7 507.371 20.7C509.905 20.7 512.171 21.2833 514.171 22.45C516.205 23.5833 517.805 25.1833 518.971 27.25C520.171 29.3167 520.771 31.75 520.771 34.55C520.771 37.3833 520.171 39.8333 518.971 41.9C517.805 43.9667 516.205 45.5667 514.171 46.7C512.171 47.8333 509.905 48.4 507.371 48.4ZM491.471 57.7V21.1H498.921V26.6L498.771 34.6L499.271 42.55V57.7H491.471ZM506.021 42C507.321 42 508.471 41.7 509.471 41.1C510.505 40.5 511.321 39.65 511.921 38.55C512.555 37.4167 512.871 36.0833 512.871 34.55C512.871 32.9833 512.555 31.65 511.921 30.55C511.321 29.45 510.505 28.6 509.471 28C508.471 27.4 507.321 27.1 506.021 27.1C504.721 27.1 503.555 27.4 502.521 28C501.488 28.6 500.671 29.45 500.071 30.55C499.471 31.65 499.171 32.9833 499.171 34.55C499.171 36.0833 499.471 37.4167 500.071 38.55C500.671 39.65 501.488 40.5 502.521 41.1C503.555 41.7 504.721 42 506.021 42ZM526.238 48V21.1H539.988C543.355 21.1 545.988 21.7167 547.888 22.95C549.788 24.15 550.738 25.85 550.738 28.05C550.738 30.25 549.838 31.9833 548.038 33.25C546.272 34.4833 543.922 35.1 540.988 35.1L541.788 33.3C545.055 33.3 547.488 33.9 549.088 35.1C550.722 36.3 551.538 38.05 551.538 40.35C551.538 42.7167 550.638 44.5833 548.838 45.95C547.038 47.3167 544.288 48 540.588 48H526.238ZM533.388 42.7H539.938C541.372 42.7 542.438 42.4667 543.138 42C543.872 41.5 544.238 40.75 544.238 39.75C544.238 38.7167 543.905 37.9667 543.238 37.5C542.572 37 541.522 36.75 540.088 36.75H533.388V42.7ZM533.388 32.15H539.288C540.655 32.15 541.672 31.9 542.338 31.4C543.038 30.9 543.388 30.1833 543.388 29.25C543.388 28.2833 543.038 27.5667 542.338 27.1C541.672 26.6333 540.655 26.4 539.288 26.4H533.388V32.15ZM557.342 48V21.1H565.092V37.1L578.192 21.1H585.342V48H577.592V32L564.542 48H557.342ZM605.64 48.4C602.74 48.4 600.157 47.8167 597.89 46.65C595.623 45.45 593.84 43.8 592.54 41.7C591.273 39.6 590.64 37.2167 590.64 34.55C590.64 31.85 591.273 29.4667 592.54 27.4C593.84 25.3 595.623 23.6667 597.89 22.5C600.157 21.3 602.74 20.7 605.64 20.7C608.473 20.7 610.94 21.3 613.04 22.5C615.14 23.6667 616.69 25.35 617.69 27.55L611.64 30.8C610.94 29.5333 610.057 28.6 608.99 28C607.957 27.4 606.823 27.1 605.59 27.1C604.257 27.1 603.057 27.4 601.99 28C600.923 28.6 600.073 29.45 599.44 30.55C598.84 31.65 598.54 32.9833 598.54 34.55C598.54 36.1167 598.84 37.45 599.44 38.55C600.073 39.65 600.923 40.5 601.99 41.1C603.057 41.7 604.257 42 605.59 42C606.823 42 607.957 41.7167 608.99 41.15C610.057 40.55 610.94 39.6 611.64 38.3L617.69 41.6C616.69 43.7667 615.14 45.45 613.04 46.65C610.94 47.8167 608.473 48.4 605.64 48.4ZM636.59 48V21.1H650.34C653.707 21.1 656.34 21.7167 658.24 22.95C660.14 24.15 661.09 25.85 661.09 28.05C661.09 30.25 660.19 31.9833 658.39 33.25C656.623 34.4833 654.273 35.1 651.34 35.1L652.14 33.3C655.407 33.3 657.84 33.9 659.44 35.1C661.073 36.3 661.89 38.05 661.89 40.35C661.89 42.7167 660.99 44.5833 659.19 45.95C657.39 47.3167 654.64 48 650.94 48H636.59ZM643.74 42.7H650.29C651.723 42.7 652.79 42.4667 653.49 42C654.223 41.5 654.59 40.75 654.59 39.75C654.59 38.7167 654.257 37.9667 653.59 37.5C652.923 37 651.873 36.75 650.44 36.75H643.74V42.7ZM643.74 32.15H649.64C651.007 32.15 652.023 31.9 652.69 31.4C653.39 30.9 653.74 30.1833 653.74 29.25C653.74 28.2833 653.39 27.5667 652.69 27.1C652.023 26.6333 651.007 26.4 649.64 26.4H643.74V32.15ZM683.543 48.4C681.277 48.4 679.293 47.9 677.593 46.9C675.893 45.9 674.56 44.3833 673.593 42.35C672.66 40.2833 672.193 37.6833 672.193 34.55C672.193 31.3833 672.643 28.7833 673.543 26.75C674.443 24.7167 675.743 23.2 677.443 22.2C679.143 21.2 681.177 20.7 683.543 20.7C686.077 20.7 688.343 21.2833 690.343 22.45C692.377 23.5833 693.977 25.1833 695.143 27.25C696.343 29.3167 696.943 31.75 696.943 34.55C696.943 37.3833 696.343 39.8333 695.143 41.9C693.977 43.9667 692.377 45.5667 690.343 46.7C688.343 47.8333 686.077 48.4 683.543 48.4ZM667.643 57.7V21.1H675.093V26.6L674.943 34.6L675.443 42.55V57.7H667.643ZM682.193 42C683.493 42 684.643 41.7 685.643 41.1C686.677 40.5 687.493 39.65 688.093 38.55C688.727 37.4167 689.043 36.0833 689.043 34.55C689.043 32.9833 688.727 31.65 688.093 30.55C687.493 29.45 686.677 28.6 685.643 28C684.643 27.4 683.493 27.1 682.193 27.1C680.893 27.1 679.727 27.4 678.693 28C677.66 28.6 676.843 29.45 676.243 30.55C675.643 31.65 675.343 32.9833 675.343 34.55C675.343 36.0833 675.643 37.4167 676.243 38.55C676.843 39.65 677.66 40.5 678.693 41.1C679.727 41.7 680.893 42 682.193 42ZM715.56 48.4C712.493 48.4 709.793 47.8 707.46 46.6C705.16 45.4 703.377 43.7667 702.11 41.7C700.843 39.6 700.21 37.2167 700.21 34.55C700.21 31.85 700.827 29.4667 702.06 27.4C703.327 25.3 705.043 23.6667 707.21 22.5C709.377 21.3 711.827 20.7 714.56 20.7C717.193 20.7 719.56 21.2667 721.66 22.4C723.793 23.5 725.477 25.1 726.71 27.2C727.943 29.2667 728.56 31.75 728.56 34.65C728.56 34.95 728.543 35.3 728.51 35.7C728.477 36.0667 728.443 36.4167 728.41 36.75H706.56V32.2H724.31L721.31 33.55C721.31 32.15 721.027 30.9333 720.46 29.9C719.893 28.8667 719.11 28.0667 718.11 27.5C717.11 26.9 715.943 26.6 714.61 26.6C713.277 26.6 712.093 26.9 711.06 27.5C710.06 28.0667 709.277 28.8833 708.71 29.95C708.143 30.9833 707.86 32.2167 707.86 33.65V34.85C707.86 36.3167 708.177 37.6167 708.81 38.75C709.477 39.85 710.393 40.7 711.56 41.3C712.76 41.8667 714.16 42.15 715.76 42.15C717.193 42.15 718.443 41.9333 719.51 41.5C720.61 41.0667 721.61 40.4167 722.51 39.55L726.66 44.05C725.427 45.45 723.877 46.5333 722.01 47.3C720.143 48.0333 717.993 48.4 715.56 48.4ZM734.539 48V21.1H742.689L752.839 39.5H749.589L760.439 21.1H767.739L767.839 48H760.789V29.1L761.989 29.9L752.739 45.4H749.439L740.139 29.35L741.589 29V48H734.539ZM788.461 48.4C785.394 48.4 782.694 47.8 780.361 46.6C778.061 45.4 776.277 43.7667 775.011 41.7C773.744 39.6 773.111 37.2167 773.111 34.55C773.111 31.85 773.727 29.4667 774.961 27.4C776.227 25.3 777.944 23.6667 780.111 22.5C782.277 21.3 784.727 20.7 787.461 20.7C790.094 20.7 792.461 21.2667 794.561 22.4C796.694 23.5 798.377 25.1 799.611 27.2C800.844 29.2667 801.461 31.75 801.461 34.65C801.461 34.95 801.444 35.3 801.411 35.7C801.377 36.0667 801.344 36.4167 801.311 36.75H779.461V32.2H797.211L794.211 33.55C794.211 32.15 793.927 30.9333 793.361 29.9C792.794 28.8667 792.011 28.0667 791.011 27.5C790.011 26.9 788.844 26.6 787.511 26.6C786.177 26.6 784.994 26.9 783.961 27.5C782.961 28.0667 782.177 28.8833 781.611 29.95C781.044 30.9833 780.761 32.2167 780.761 33.65V34.85C780.761 36.3167 781.077 37.6167 781.711 38.75C782.377 39.85 783.294 40.7 784.461 41.3C785.661 41.8667 787.061 42.15 788.661 42.15C790.094 42.15 791.344 41.9333 792.411 41.5C793.511 41.0667 794.511 40.4167 795.411 39.55L799.561 44.05C798.327 45.45 796.777 46.5333 794.911 47.3C793.044 48.0333 790.894 48.4 788.461 48.4ZM807.439 48V21.1H815.189V31.6H826.889V21.1H834.689V48H826.889V37.95H815.189V48H807.439ZM842.156 48V21.1H849.906V31.6H861.606V21.1H869.406V48H861.606V37.95H849.906V48H842.156ZM889.473 48.4C886.606 48.4 884.056 47.8 881.823 46.6C879.623 45.4 877.873 43.7667 876.573 41.7C875.306 39.6 874.673 37.2167 874.673 34.55C874.673 31.85 875.306 29.4667 876.573 27.4C877.873 25.3 879.623 23.6667 881.823 22.5C884.056 21.3 886.606 20.7 889.473 20.7C892.306 20.7 894.84 21.3 897.073 22.5C899.306 23.6667 901.056 25.2833 902.323 27.35C903.59 29.4167 904.223 31.8167 904.223 34.55C904.223 37.2167 903.59 39.6 902.323 41.7C901.056 43.7667 899.306 45.4 897.073 46.6C894.84 47.8 892.306 48.4 889.473 48.4ZM889.473 42C890.773 42 891.94 41.7 892.973 41.1C894.006 40.5 894.823 39.65 895.423 38.55C896.023 37.4167 896.323 36.0833 896.323 34.55C896.323 32.9833 896.023 31.65 895.423 30.55C894.823 29.45 894.006 28.6 892.973 28C891.94 27.4 890.773 27.1 889.473 27.1C888.173 27.1 887.006 27.4 885.973 28C884.94 28.6 884.106 29.45 883.473 30.55C882.873 31.65 882.573 32.9833 882.573 34.55C882.573 36.0833 882.873 37.4167 883.473 38.55C884.106 39.65 884.94 40.5 885.973 41.1C887.006 41.7 888.173 42 889.473 42ZM923.748 48V21.1H931.498V31.6H943.198V21.1H950.998V48H943.198V37.95H931.498V48H923.748ZM971.615 48.4C968.548 48.4 965.848 47.8 963.515 46.6C961.215 45.4 959.432 43.7667 958.165 41.7C956.898 39.6 956.265 37.2167 956.265 34.55C956.265 31.85 956.882 29.4667 958.115 27.4C959.382 25.3 961.098 23.6667 963.265 22.5C965.432 21.3 967.882 20.7 970.615 20.7C973.248 20.7 975.615 21.2667 977.715 22.4C979.848 23.5 981.532 25.1 982.765 27.2C983.998 29.2667 984.615 31.75 984.615 34.65C984.615 34.95 984.598 35.3 984.565 35.7C984.532 36.0667 984.498 36.4167 984.465 36.75H962.615V32.2H980.365L977.365 33.55C977.365 32.15 977.082 30.9333 976.515 29.9C975.948 28.8667 975.165 28.0667 974.165 27.5C973.165 26.9 971.998 26.6 970.665 26.6C969.332 26.6 968.148 26.9 967.115 27.5C966.115 28.0667 965.332 28.8833 964.765 29.95C964.198 30.9833 963.915 32.2167 963.915 33.65V34.85C963.915 36.3167 964.232 37.6167 964.865 38.75C965.532 39.85 966.448 40.7 967.615 41.3C968.815 41.8667 970.215 42.15 971.815 42.15C973.248 42.15 974.498 41.9333 975.565 41.5C976.665 41.0667 977.665 40.4167 978.565 39.55L982.715 44.05C981.482 45.45 979.932 46.5333 978.065 47.3C976.198 48.0333 974.048 48.4 971.615 48.4ZM1008.85 44.5V27.5H1000.05L999.9 30.95C999.833 32.3833 999.75 33.75 999.65 35.05C999.55 36.35 999.35 37.5333 999.05 38.6C998.783 39.6333 998.383 40.5167 997.85 41.25C997.316 41.95 996.6 42.4333 995.7 42.7L988 41.6C988.966 41.6 989.75 41.3167 990.35 40.75C990.95 40.15 991.416 39.3333 991.75 38.3C992.083 37.2333 992.333 36.0333 992.5 34.7C992.666 33.3333 992.783 31.9 992.85 30.4L993.2 21.1H1016.65V44.5H1008.85ZM987.1 53.8V41.6H1020.5V53.8H1013.25V48H994.35V53.8H987.1ZM1038.01 48.4C1035.14 48.4 1032.59 47.8 1030.36 46.6C1028.16 45.4 1026.41 43.7667 1025.11 41.7C1023.84 39.6 1023.21 37.2167 1023.21 34.55C1023.21 31.85 1023.84 29.4667 1025.11 27.4C1026.41 25.3 1028.16 23.6667 1030.36 22.5C1032.59 21.3 1035.14 20.7 1038.01 20.7C1040.84 20.7 1043.37 21.3 1045.61 22.5C1047.84 23.6667 1049.59 25.2833 1050.86 27.35C1052.12 29.4167 1052.76 31.8167 1052.76 34.55C1052.76 37.2167 1052.12 39.6 1050.86 41.7C1049.59 43.7667 1047.84 45.4 1045.61 46.6C1043.37 47.8 1040.84 48.4 1038.01 48.4ZM1038.01 42C1039.31 42 1040.47 41.7 1041.51 41.1C1042.54 40.5 1043.36 39.65 1043.96 38.55C1044.56 37.4167 1044.86 36.0833 1044.86 34.55C1044.86 32.9833 1044.56 31.65 1043.96 30.55C1043.36 29.45 1042.54 28.6 1041.51 28C1040.47 27.4 1039.31 27.1 1038.01 27.1C1036.71 27.1 1035.54 27.4 1034.51 28C1033.47 28.6 1032.64 29.45 1032.01 30.55C1031.41 31.65 1031.11 32.9833 1031.11 34.55C1031.11 36.0833 1031.41 37.4167 1032.01 38.55C1032.64 39.65 1033.47 40.5 1034.51 41.1C1035.54 41.7 1036.71 42 1038.01 42ZM1070.92 48.4C1068.02 48.4 1065.44 47.8167 1063.17 46.65C1060.91 45.45 1059.12 43.8 1057.82 41.7C1056.56 39.6 1055.92 37.2167 1055.92 34.55C1055.92 31.85 1056.56 29.4667 1057.82 27.4C1059.12 25.3 1060.91 23.6667 1063.17 22.5C1065.44 21.3 1068.02 20.7 1070.92 20.7C1073.76 20.7 1076.22 21.3 1078.32 22.5C1080.42 23.6667 1081.97 25.35 1082.97 27.55L1076.92 30.8C1076.22 29.5333 1075.34 28.6 1074.27 28C1073.24 27.4 1072.11 27.1 1070.87 27.1C1069.54 27.1 1068.34 27.4 1067.27 28C1066.21 28.6 1065.36 29.45 1064.72 30.55C1064.12 31.65 1063.82 32.9833 1063.82 34.55C1063.82 36.1167 1064.12 37.45 1064.72 38.55C1065.36 39.65 1066.21 40.5 1067.27 41.1C1068.34 41.7 1069.54 42 1070.87 42C1072.11 42 1073.24 41.7167 1074.27 41.15C1075.34 40.55 1076.22 39.6 1076.92 38.3L1082.97 41.6C1081.97 43.7667 1080.42 45.45 1078.32 46.65C1076.22 47.8167 1073.76 48.4 1070.92 48.4ZM1093.41 48V25.7L1095.16 27.5H1084.31V21.1H1110.26V27.5H1099.41L1101.16 25.7V48H1093.41ZM1118.22 58.1C1116.82 58.1 1115.44 57.8833 1114.07 57.45C1112.7 57.0167 1111.59 56.4167 1110.72 55.65L1113.57 50.1C1114.17 50.6333 1114.85 51.05 1115.62 51.35C1116.42 51.65 1117.2 51.8 1117.97 51.8C1119.07 51.8 1119.94 51.5333 1120.57 51C1121.24 50.5 1121.84 49.65 1122.37 48.45L1123.77 45.15L1124.37 44.3L1134.02 21.1H1141.52L1129.37 49.65C1128.5 51.8167 1127.5 53.5167 1126.37 54.75C1125.27 55.9833 1124.04 56.85 1122.67 57.35C1121.34 57.85 1119.85 58.1 1118.22 58.1ZM1122.82 49.05L1110.82 21.1H1118.87L1128.17 43.6L1122.82 49.05ZM1145.28 48V21.1H1172.03V48H1164.23V25.75L1165.98 27.5H1151.28L1153.03 25.75V48H1145.28ZM1192.66 48.4C1189.59 48.4 1186.89 47.8 1184.56 46.6C1182.26 45.4 1180.48 43.7667 1179.21 41.7C1177.94 39.6 1177.31 37.2167 1177.31 34.55C1177.31 31.85 1177.93 29.4667 1179.16 27.4C1180.43 25.3 1182.14 23.6667 1184.31 22.5C1186.48 21.3 1188.93 20.7 1191.66 20.7C1194.29 20.7 1196.66 21.2667 1198.76 22.4C1200.89 23.5 1202.58 25.1 1203.81 27.2C1205.04 29.2667 1205.66 31.75 1205.66 34.65C1205.66 34.95 1205.64 35.3 1205.61 35.7C1205.58 36.0667 1205.54 36.4167 1205.51 36.75H1183.66V32.2H1201.41L1198.41 33.55C1198.41 32.15 1198.13 30.9333 1197.56 29.9C1196.99 28.8667 1196.21 28.0667 1195.21 27.5C1194.21 26.9 1193.04 26.6 1191.71 26.6C1190.38 26.6 1189.19 26.9 1188.16 27.5C1187.16 28.0667 1186.38 28.8833 1185.81 29.95C1185.24 30.9833 1184.96 32.2167 1184.96 33.65V34.85C1184.96 36.3167 1185.28 37.6167 1185.91 38.75C1186.58 39.85 1187.49 40.7 1188.66 41.3C1189.86 41.8667 1191.26 42.15 1192.86 42.15C1194.29 42.15 1195.54 41.9333 1196.61 41.5C1197.71 41.0667 1198.71 40.4167 1199.61 39.55L1203.76 44.05C1202.53 45.45 1200.98 46.5333 1199.11 47.3C1197.24 48.0333 1195.09 48.4 1192.66 48.4ZM1211.64 48V21.1H1219.39V31.6H1231.09V21.1H1238.89V48H1231.09V37.95H1219.39V48H1211.64Z" fill="#828282"/>
</svg>
