<svg width="1600" height="1600" viewBox="0 0 1600 1600" fill="none" xmlns="http://www.w3.org/2000/svg">
  <rect fill="var(--accent-semi-transparent)" width="1600" height="1600" rx="800"/>
  <path fill="#E1CFA1" d="M394.845 1244.33L407.217 871.134L281.443 797.938L414.433 674.227L311.34 563.918L431.959 519.588L414.433 674.227L822.68 846.392L1174.23 671.134L1146.39 519.588L1256.7 552.577L1174.23 671.134L1323.71 840.206L1198.97 901.031V1210.31L815.464 1392.78L394.845 1244.33Z"/>
  <path fill="black" d="M1123.89 1084.51C1121.02 1086.35 1120.75 1094.23 1122.32 1126.54C1123.89 1161.48 1124.68 1166.47 1128.6 1165.68C1132.26 1164.89 1132.78 1160.69 1131.73 1133.37C1130.69 1092.92 1128.86 1081.62 1123.89 1084.51Z"/>
  <path fill="black" d="M1101.67 1093.44C1097.49 1096.59 1097.22 1100.27 1099.06 1136.79C1100.62 1170.93 1101.41 1176.71 1105.07 1176.71C1114.74 1176.45 1115.26 1174.09 1112.91 1134.68C1111.87 1113.67 1110.82 1095.02 1110.82 1093.18C1110.56 1088.98 1107.42 1089.24 1101.67 1093.44Z"/>
  <path fill="black" d="M1073.17 1104.74C1071.34 1106.84 1073.96 1182.23 1076.31 1186.43C1077.35 1188.27 1079.45 1188.8 1081.28 1187.48C1085.98 1184.59 1082.58 1103.16 1077.88 1103.16C1076.31 1103.16 1074.22 1103.95 1073.17 1104.74Z"/>
  <path fill="black" d="M1056.44 1111.3C1050.95 1113.41 1050.69 1114.46 1052 1141.78C1053.56 1176.19 1055.66 1197.73 1057.22 1197.73C1058.01 1197.73 1060.88 1196.41 1063.76 1194.84C1068.73 1192.21 1068.99 1190.37 1067.16 1152.28C1066.37 1130.22 1064.81 1111.57 1063.76 1110.78C1062.98 1109.73 1059.58 1109.99 1056.44 1111.3Z"/>
  <path fill="black" d="M676.831 1133.89C672.126 1145.19 667.419 1155.7 666.897 1157.54C666.374 1159.11 668.205 1161.21 671.341 1162.27C676.831 1164.11 676.831 1164.89 675.001 1199.04L673.172 1234.24L682.06 1236.61L690.949 1238.71L692.518 1205.87C693.563 1187.75 694.347 1171.72 694.609 1170.41C694.609 1169.36 696.7 1169.09 699.054 1169.88C702.452 1171.2 702.976 1170.41 701.669 1165.68C700.883 1162.27 697.747 1149.39 694.347 1136.52C691.211 1123.91 687.811 1113.67 687.027 1113.67C686.244 1113.67 681.537 1122.86 676.831 1133.89Z"/>
  <path fill="black" d="M1026.11 1123.39C1025.59 1124.7 1026.11 1139.67 1027.16 1157.01C1028.21 1174.35 1029.25 1193 1029.25 1198.52C1029.51 1206.66 1030.3 1208.5 1033.96 1207.71C1038.92 1206.92 1038.92 1208.24 1035.79 1150.97C1034.48 1129.17 1033.17 1121.55 1030.56 1121.55C1028.73 1121.55 1026.64 1122.34 1026.11 1123.39Z"/>
  <path fill="black" d="M1006.24 1131.79C1003.63 1133.63 1003.11 1141.51 1004.68 1173.56C1005.72 1195.1 1007.55 1214.28 1008.6 1216.12C1010.17 1218.48 1011.73 1218.48 1016.44 1216.12C1021.67 1213.23 1021.93 1211.65 1020.62 1195.63C1019.84 1185.91 1018.53 1166.99 1017.49 1153.6C1015.92 1129.69 1014.35 1126.54 1006.24 1131.79Z"/>
  <path fill="black" d="M721.277 1152.81C711.081 1172.77 710.819 1173.82 715.788 1175.4C720.755 1176.97 721.017 1179.34 721.017 1212.17V1247.11L727.813 1248.69C731.734 1249.74 735.134 1250 735.656 1249.48C737.749 1247.37 739.056 1234.24 739.056 1208.5L739.316 1181.44L745.852 1183.02C749.512 1184.07 752.388 1183.54 752.388 1182.23C752.388 1178.81 736.441 1136.52 734.087 1133.89C733.041 1132.58 727.291 1141.25 721.277 1152.81Z"/>
  <path fill="black" d="M980.624 1141.78C976.704 1143.09 976.18 1163.32 979.057 1203.77C980.364 1225.31 981.409 1229.25 984.807 1228.73C988.467 1227.94 988.729 1224 987.945 1200.36C986.638 1158.06 984.286 1140.73 980.624 1141.78Z"/>
  <path fill="black" d="M955.525 1152.28C954.218 1154.91 958.661 1237.66 959.968 1239.23C960.754 1239.76 962.323 1239.5 963.89 1238.45C969.643 1235.03 965.721 1150.44 959.968 1150.44C958.14 1150.44 956.047 1151.23 955.525 1152.28Z"/>
  <path fill="black" d="M658.011 1249.48C658.011 1250.79 657.487 1254.21 656.703 1257.1C656.18 1260.25 657.225 1263.93 659.056 1265.24C662.192 1267.87 746.899 1297.55 750.821 1297.55C751.866 1297.55 752.388 1292.56 751.866 1286.52L751.081 1275.75L706.637 1261.82C659.578 1246.85 658.27 1246.59 658.011 1249.48Z"/>
  <path stroke="black" stroke-width="4" stroke-linecap="round" stroke-linejoin="round" d="M436.678 516.439L306.357 564.118L414.429 675.367L280.928 797.743L638.519 999.584L822.876 845.423L961.144 1017.07L1325.09 840.654L1169.34 671.052L1259.93 552.992L1139.83 518.363"/>
  <path stroke="black" stroke-width="4" stroke-linecap="round" stroke-linejoin="round" d="M407.704 870.383L395.312 1246.28L814.378 1395.43L1202.09 1209.13L1201.27 901.719"/>
  <path stroke="black" stroke-width="4" stroke-linecap="round" stroke-linejoin="round" d="M820.701 846.518L814.546 1391.87"/>
  <ellipse fill="white" cx="797.938" cy="647.423" rx="103.093" ry="103.093"/>
  <circle fill="white" cx="948.454" cy="556.701" r="103.093"/>
  <circle fill="white" cx="647.423" cy="556.701" r="103.093"/>
  <circle fill="white" cx="564.949" cy="352.577" r="72.165"/>
  <ellipse fill="white" cx="1008.25" cy="338.144" rx="72.165" ry="72.165"/>
  <path fill="black" d="M824.036 853.609C827.443 850.456 953.341 784.622 1094.15 713.801C1137.6 691.942 1173.2 673.249 1173.2 672.449C1173.2 671.661 1169.01 646.12 1164.03 615.58C1125.57 385.445 1071.11 228.52 1020.87 202.45C1008.82 196.391 1004.37 196.391 992.338 202.709C967.211 216.144 932.398 271.178 913.809 327.517L907.79 345.423L894.715 343.846C826.404 335.423 748.654 335.152 696.046 343.587C680.603 346.211 667.528 347.799 666.993 347.269C666.474 346.74 658.882 333.835 650.251 318.835C620.679 266.954 586.905 223.779 565.703 210.873C560.204 207.45 552.353 205.344 545.296 205.344C535.077 205.344 532.465 206.662 523.3 216.403C495.041 246.155 463.894 341.74 437.972 477.866C421.75 563.44 406.827 673.249 411.027 676.931C412.066 677.719 460.488 698.519 518.855 722.742C652.863 778.834 647.899 776.728 716.469 805.692C748.134 819.115 782.167 836.738 793.685 841.479C805.202 846.22 824.036 853.609 824.036 853.609ZM1009.35 284.071C1010.13 285.13 1004.37 296.189 996.524 308.035C988.672 320.153 978.468 339.364 973.748 350.693C966.157 369.387 961.192 374.916 957.526 369.128C954.379 363.857 969.563 330.153 988.153 301.977C1000.71 283.024 1005.95 278.542 1009.35 284.071ZM574.349 300.659C599.996 332.529 624.07 375.704 618.051 379.386C613.087 382.292 611.254 380.445 602.348 362.54C592.145 341.999 575.647 317.247 564.13 305.4C559.425 300.4 555.499 294.871 555.499 293.024C555.499 285.918 565.703 290.13 574.349 300.659ZM1035.78 339.364C1036.57 340.681 1031.34 347.799 1024.26 355.434C1017.47 362.798 1008.82 374.657 1005.43 381.763C998.876 395.715 993.377 399.927 990.765 393.351C988.412 387.292 999.41 367.81 1014.58 351.222C1026.63 337.529 1032.39 334.364 1035.78 339.364ZM564.924 355.952C580.108 372.281 590.571 388.339 588.219 392.292C585.072 397.562 580.108 394.927 575.128 385.186C572.256 379.657 563.611 369.128 556.019 361.493C542.928 348.317 540.835 342.27 548.702 342.27C550.52 342.27 557.852 348.587 564.924 355.952ZM681.138 496.301C724.061 518.159 731.393 578.722 694.748 611.109C661.234 640.591 609.681 631.638 588.479 592.145C578.794 574.51 576.701 552.123 582.98 535.264C588.219 521.582 604.96 501.83 616.218 496.042C635.847 485.772 660.715 485.771 681.138 496.301ZM982.654 496.83C1006.21 509.724 1018.78 531.582 1018.78 558.97C1018.78 586.875 1005.15 608.204 978.988 621.639C937.103 643.226 884.496 612.945 880.83 565.287C876.125 507.889 933.177 469.713 982.654 496.83ZM827.443 599.251C831.888 602.945 835.554 607.686 835.554 609.792C835.554 619.003 826.924 629.803 815.666 634.803C804.927 639.803 804.484 642.05 804.484 651.261C804.484 660.743 805.202 660.873 822.738 672.449C833.568 679.649 847.881 670.602 855.014 667.743C856.573 667.12 858.345 667.708 859.185 668.614C859.979 669.484 859.887 670.637 859.505 671.096C856.114 675.307 835.035 692.99 812 677.461C801.002 670.084 796.862 670.096 787.422 677.955C767.58 694.46 749.723 675.708 747.371 672.814C746.958 672.355 746.76 670.884 747.753 670.131C748.577 669.508 750.471 669.472 751.617 669.99C757.712 672.719 769.611 680.39 777.692 673.296C791.409 661.261 793.685 659.002 793.685 651.391C793.685 640.861 793.15 640.062 781.373 634.274C749.188 618.215 761.745 592.675 802.056 592.404C816.979 592.404 820.646 593.463 827.443 599.251Z"/>
  <path fill="black" d="M635.435 526.053C636.733 535.276 635.954 537.111 629.935 541.064C624.436 544.758 621.55 545.275 616.845 542.911C613.438 541.334 609.772 540.805 608.993 541.593C608.199 542.652 607.42 550.016 607.42 558.181C607.42 585.039 624.956 601.627 651.397 599.521C675.73 597.674 689.875 582.404 689.875 558.181C689.875 533.17 675.73 518.417 649.564 516.582L634.121 515.523L635.435 526.053Z"/>
  <path fill="black" d="M936.951 517.629C936.692 518.946 936.417 524.217 936.157 528.958C935.897 540.804 924.899 548.44 916.269 542.91C911.564 540.016 910.77 540.275 908.417 546.334C904.492 556.863 905.271 563.969 911.824 576.616C919.675 592.144 928.825 598.203 945.582 599.521C969.396 601.356 986.932 587.403 990.857 563.181C992.95 550.546 984.579 531.323 973.322 522.899C966.005 517.629 937.471 513.417 936.951 517.629Z"/>
</svg>
