<svg width="180" height="180" viewBox="0 0 180 180" fill="none" xmlns="http://www.w3.org/2000/svg">
  <rect width="180" height="180" rx="90" fill="#B596FF" fill-opacity="0.2"/>
  <path d="M95.1186 142.492C95.6656 141.985 115.895 131.42 138.523 120.053C145.504 116.545 151.224 113.544 151.224 113.418C151.224 113.291 150.551 109.192 149.752 104.29C143.57 67.3549 134.822 42.1682 126.746 37.9845C124.812 37.0126 124.097 37.0126 122.162 38.0268C118.125 40.182 112.531 49.0142 109.545 58.0578L108.577 60.9314L106.475 60.6779C95.4974 59.3256 83.0061 59.2833 74.5525 60.6356C72.0707 61.0582 69.9681 61.3118 69.8839 61.2272C69.7996 61.1427 68.58 59.072 67.1922 56.6632C62.4396 48.3381 57.0141 41.4075 53.6073 39.3368C52.7243 38.7875 51.4625 38.4494 50.3268 38.4494C48.6866 38.4494 48.266 38.6607 46.7939 40.2243C42.2517 44.9996 37.2468 60.3398 33.083 82.1879C30.4755 95.9224 28.0781 113.544 28.7511 114.136C28.9193 114.263 36.7001 117.601 46.0791 121.489C67.6128 130.491 66.8137 130.152 77.833 134.801C82.9218 136.956 88.3895 139.785 90.24 140.545C92.0905 141.306 95.1186 142.492 95.1186 142.492ZM124.896 51.085C125.022 51.254 124.097 53.0289 122.835 54.9306C121.573 56.8745 119.933 59.9594 119.176 61.7766C117.956 64.777 117.157 65.6645 116.568 64.7348C116.064 63.8896 118.503 58.4804 121.489 53.9586C123.508 50.9159 124.349 50.1975 124.896 51.085ZM54.9954 53.7473C59.117 58.8607 62.9863 65.7913 62.019 66.3829C61.22 66.8477 60.9254 66.5519 59.4955 63.6783C57.8553 60.3821 55.2057 56.4096 53.3552 54.508C52.5979 53.705 51.967 52.8176 51.967 52.5218C51.967 51.3808 53.6073 52.0569 54.9954 53.7473ZM129.144 59.9594C129.27 60.1708 128.429 61.3118 127.293 62.5373C126.2 63.7205 124.812 65.6222 124.265 66.7632C123.214 69.003 122.33 69.6791 121.91 68.6227C121.531 67.6507 123.298 64.5235 125.737 61.8611C127.672 59.6636 128.597 59.1565 129.144 59.9594ZM53.4812 62.6218C55.9205 65.2419 57.6029 67.8197 57.2244 68.4536C56.7196 69.2988 55.9205 68.8762 55.1214 67.3126C54.6587 66.4251 53.2709 64.7348 52.0513 63.5092C49.9483 61.3963 49.612 60.4243 50.8738 60.4243C51.168 60.4243 52.3455 61.4385 53.4812 62.6218ZM72.155 85.1463C79.0526 88.6536 80.2301 98.3733 74.3422 103.571C68.9584 108.304 60.673 106.867 57.2665 100.529C55.7102 97.6973 55.3739 94.105 56.3832 91.4004C57.2244 89.2029 59.9161 86.0336 61.7245 85.1038C64.8789 83.4556 68.8745 83.4556 72.155 85.1463ZM120.606 85.2305C124.391 87.3013 126.41 90.809 126.41 95.2039C126.41 99.6835 124.223 103.106 120.017 105.262C113.288 108.727 104.834 103.867 104.245 96.2179C103.488 87.0054 112.657 80.878 120.606 85.2305ZM95.6656 101.67C96.3804 102.261 96.9695 103.022 96.9695 103.36C96.9695 104.839 95.5813 106.572 93.7729 107.374C92.0484 108.178 91.9224 108.347 91.9224 109.826C91.9224 111.347 92.0905 111.558 94.9083 113.418C97.39 115.066 97.7685 115.531 97.3479 116.038C96.8009 116.714 96.8852 116.714 93.1841 114.221C91.4175 113.037 90.9969 113.037 90.114 114.009C89.6934 114.432 88.5577 115.404 87.5483 116.122C86.0341 117.221 85.6135 117.348 85.2351 116.883C84.8145 116.418 85.2772 115.826 87.4641 114.009C90.0718 111.896 90.24 111.643 90.24 110.037C90.24 108.347 90.1558 108.22 88.2631 107.29C83.09 104.712 85.109 100.613 91.5857 100.571C93.9832 100.571 94.572 100.74 95.6656 101.67Z" fill="black"/>
  <path d="M64.8114 89.9218C65.0217 91.4008 64.8957 91.6967 63.9281 92.3305C63.0452 92.9223 62.5824 93.0069 61.8255 92.6264C61.2785 92.373 60.6898 92.2884 60.5637 92.4151C60.4374 92.5843 60.3113 93.7674 60.3113 95.0776C60.3113 99.388 63.1291 102.05 67.3771 101.712C71.2884 101.416 73.5596 98.9654 73.5596 95.0776C73.5596 91.0628 71.2884 88.6965 67.0826 88.4006L64.6011 88.2314L64.8114 89.9218Z" fill="black"/>
  <path d="M113.262 88.5689C113.22 88.7802 113.178 89.6253 113.136 90.3862C113.094 92.2879 111.328 93.5135 109.94 92.6258C109.183 92.1611 109.056 92.2033 108.678 93.1751C108.047 94.8658 108.173 96.0068 109.225 98.0351C110.486 100.528 111.958 101.5 114.65 101.712C118.478 102.008 121.295 99.7679 121.926 95.8798C122.263 93.8515 120.917 90.7664 119.109 89.414C117.931 88.5689 113.346 87.8929 113.262 88.5689Z" fill="black"/>
</svg>
