<svg width="1600" height="1600" viewBox="0 0 1600 1600" fill="none" xmlns="http://www.w3.org/2000/svg">
  <rect fill="var(--accent-semi-transparent)" width="1600" height="1600" rx="800"/>
  <path fill="var(--text-2)" d="M845.498 1266.6C850.36 1262.09 1030.18 1168.18 1231.31 1067.13C1293.37 1035.95 1344.21 1009.28 1344.21 1008.15C1344.21 1007.03 1338.23 970.592 1331.13 927.017C1276.17 598.707 1198.41 374.826 1126.63 337.637C1109.44 328.998 1103.08 328.998 1085.88 338.013C1050 357.171 1000.27 435.679 973.73 516.066L965.133 541.61L946.44 539.356C848.865 527.336 737.831 526.96 662.688 538.98C640.628 542.737 621.938 544.991 621.19 544.239C620.441 543.488 609.599 525.082 597.263 503.67C555.019 429.669 506.791 368.064 476.508 349.658C468.66 344.775 457.444 341.769 447.349 341.769C432.769 341.769 429.03 343.648 415.945 357.546C375.57 399.994 331.082 536.351 294.071 730.556C270.892 852.641 249.583 1009.28 255.565 1014.54C257.06 1015.67 326.222 1045.34 409.591 1079.9C601.002 1159.91 593.899 1156.91 691.848 1198.23C737.082 1217.38 785.684 1242.53 802.133 1249.29C818.582 1256.05 845.498 1266.6 845.498 1266.6ZM1110.19 454.086C1111.31 455.588 1103.08 471.365 1091.87 488.269C1080.65 505.548 1066.07 532.97 1059.34 549.123C1048.5 575.793 1041.4 583.681 1036.16 575.417C1031.68 567.905 1053.36 519.823 1079.9 479.629C1097.85 452.583 1105.33 446.197 1110.19 454.086ZM488.848 477.751C525.484 523.204 559.877 584.809 551.28 590.067C544.177 594.199 541.559 591.57 528.848 566.026C514.269 536.727 490.717 501.416 474.268 484.513C467.536 477.375 461.929 469.487 461.929 466.857C461.929 456.715 476.508 462.726 488.848 477.751ZM1147.95 532.97C1149.07 534.849 1141.59 544.991 1131.49 555.884C1121.78 566.402 1109.44 583.306 1104.58 593.448C1095.23 613.357 1087.38 619.367 1083.64 609.977C1080.28 601.337 1095.98 573.539 1117.66 549.874C1134.86 530.341 1143.08 525.833 1147.95 532.97ZM475.388 556.635C497.071 579.925 512.025 602.839 508.661 608.474C504.173 615.987 497.071 612.23 489.968 598.331C485.855 590.443 473.519 575.417 462.678 564.524C443.985 545.742 440.995 537.102 452.211 537.102C454.826 537.102 465.293 546.118 475.388 556.635ZM641.377 756.853C702.689 788.029 713.156 874.426 660.819 920.631C612.963 962.702 539.315 949.929 509.035 893.585C495.201 868.418 492.212 836.486 501.184 812.445C508.661 792.912 532.587 764.74 548.662 756.476C576.701 741.825 612.218 741.825 641.377 756.853ZM1072.05 757.602C1105.7 776.009 1123.64 807.188 1123.64 846.254C1123.64 886.073 1104.2 916.497 1066.82 935.656C1007 966.458 931.86 923.261 926.623 855.268C919.895 773.379 1001.4 718.913 1072.05 757.602ZM850.36 903.728C856.714 908.985 861.95 915.748 861.95 918.753C861.95 931.9 849.611 947.302 833.537 954.437C818.208 961.575 817.087 963.079 817.087 976.226C817.087 989.747 818.582 991.625 843.629 1008.15C865.689 1022.8 869.053 1026.94 865.314 1031.44C860.452 1037.46 861.201 1037.46 828.303 1015.29C812.6 1004.77 808.861 1004.77 801.013 1013.41C797.274 1017.17 787.179 1025.81 778.207 1032.2C764.747 1041.96 761.009 1043.09 757.645 1038.96C753.906 1034.83 758.019 1029.57 777.458 1013.41C800.638 994.633 802.133 992.377 802.133 978.104C802.133 963.079 801.384 961.95 784.561 953.685C738.577 930.773 756.524 894.337 814.095 893.96C835.406 893.96 840.639 895.463 850.36 903.728Z"/>
  <path fill="var(--text-2)" d="M576.101 799.298C577.97 812.445 576.85 815.075 568.249 820.71C560.4 825.97 556.287 826.721 549.559 823.34C544.697 821.087 539.464 820.335 538.343 821.461C537.22 822.965 536.1 833.482 536.1 845.128C536.1 883.443 561.146 907.107 598.907 904.102C633.674 901.472 653.862 879.687 653.862 845.128C653.862 809.441 633.674 788.407 596.288 785.777L574.231 784.273L576.101 799.298Z"/>
  <path fill="var(--text-2)" d="M1006.78 787.277C1006.4 789.155 1006.03 796.668 1005.65 803.432C1005.28 820.335 989.579 831.229 977.243 823.339C970.512 819.208 969.391 819.583 966.027 828.222C960.419 843.25 961.54 853.392 970.886 871.422C982.102 893.585 995.187 902.224 1019.11 904.102C1053.13 906.732 1078.18 886.824 1083.79 852.263C1086.78 834.234 1074.82 806.81 1058.74 794.79C1048.27 787.277 1007.52 781.268 1006.78 787.277Z"/>
</svg>
