<svg fill="none" width="1600" height="1600" viewBox="0 0 1600 1600" xmlns="http://www.w3.org/2000/svg">
  <rect fill="var(--accent-semi-transparent)" width="1600" height="1600" rx="800"/>
  <path fill="var(--text-2)" d="M1094.45 1058.65C1091.83 1060.32 1091.6 1067.48 1093.02 1096.85C1094.45 1128.62 1095.16 1133.15 1098.73 1132.44C1102.05 1131.72 1102.53 1127.9 1101.58 1103.06C1100.63 1066.29 1098.96 1056.02 1094.45 1058.65Z"/>
  <path fill="var(--text-2)" d="M1074.24 1066.76C1070.44 1069.63 1070.2 1072.97 1071.87 1106.17C1073.29 1137.21 1074.01 1142.47 1077.33 1142.47C1086.13 1142.23 1086.6 1140.08 1084.46 1104.26C1083.51 1085.15 1082.56 1068.2 1082.56 1066.52C1082.32 1062.7 1079.47 1062.94 1074.24 1066.76Z"/>
  <path fill="var(--text-2)" d="M1048.34 1077.03C1046.67 1078.94 1049.05 1147.48 1051.19 1151.3C1052.14 1152.97 1054.04 1153.45 1055.71 1152.26C1059.98 1149.63 1056.89 1075.6 1052.62 1075.6C1051.19 1075.6 1049.29 1076.32 1048.34 1077.03Z"/>
  <path fill="var(--text-2)" d="M1033.13 1083C1028.14 1084.91 1027.9 1085.87 1029.09 1110.7C1030.51 1141.99 1032.41 1161.57 1033.84 1161.57C1034.55 1161.57 1037.17 1160.38 1039.78 1158.94C1044.3 1156.56 1044.54 1154.88 1042.87 1120.26C1042.16 1100.2 1040.73 1083.24 1039.78 1082.53C1039.07 1081.57 1035.98 1081.81 1033.13 1083Z"/>
  <path fill="var(--text-2)" d="M688.028 1103.54C683.75 1113.81 679.471 1123.36 678.997 1125.03C678.521 1126.47 680.185 1128.38 683.036 1129.33C688.028 1131 688.028 1131.72 686.363 1162.76L684.701 1194.77L692.781 1196.91L700.862 1198.82L702.288 1168.97C703.239 1152.5 703.951 1137.93 704.189 1136.73C704.189 1135.78 706.09 1135.54 708.23 1136.26C711.319 1137.45 711.795 1136.73 710.607 1132.44C709.893 1129.33 707.042 1117.63 703.951 1105.93C701.1 1094.47 698.009 1085.15 697.297 1085.15C696.584 1085.15 692.305 1093.51 688.028 1103.54Z"/>
  <path fill="var(--text-2)" d="M1005.56 1093.99C1005.08 1095.18 1005.56 1108.79 1006.51 1124.56C1007.46 1140.32 1008.41 1157.27 1008.41 1162.29C1008.65 1169.69 1009.36 1171.36 1012.69 1170.65C1017.2 1169.93 1017.2 1171.12 1014.35 1119.06C1013.16 1099.24 1011.98 1092.32 1009.6 1092.32C1007.93 1092.32 1006.03 1093.03 1005.56 1093.99Z"/>
  <path fill="var(--text-2)" d="M987.494 1101.63C985.117 1103.3 984.641 1110.47 986.068 1139.6C987.018 1159.18 988.683 1176.62 989.633 1178.29C991.059 1180.44 992.484 1180.44 996.763 1178.29C1001.52 1175.66 1001.75 1174.23 1000.56 1159.66C999.852 1150.83 998.664 1133.63 997.714 1121.45C996.287 1099.72 994.861 1096.86 987.494 1101.63Z"/>
  <path fill="var(--text-2)" d="M728.432 1120.73C719.164 1138.88 718.925 1139.84 723.443 1141.27C727.958 1142.7 728.196 1144.85 728.196 1174.7V1206.47L734.374 1207.9C737.94 1208.85 741.03 1209.09 741.505 1208.62C743.407 1206.7 744.596 1194.76 744.596 1171.36L744.832 1146.76L750.774 1148.2C754.101 1149.15 756.716 1148.67 756.716 1147.48C756.716 1144.38 742.219 1105.93 740.078 1103.54C739.128 1102.35 733.9 1110.23 728.432 1120.73Z"/>
  <path fill="var(--text-2)" d="M964.203 1110.7C960.64 1111.9 960.164 1130.29 962.778 1167.06C963.967 1186.65 964.917 1190.23 968.006 1189.75C971.333 1189.03 971.571 1185.45 970.859 1163.96C969.671 1125.51 967.532 1109.75 964.203 1110.7Z"/>
  <path fill="var(--text-2)" d="M941.386 1120.26C940.198 1122.65 944.237 1197.87 945.426 1199.3C946.14 1199.78 947.566 1199.54 948.991 1198.59C954.22 1195.48 950.655 1118.59 945.426 1118.59C943.763 1118.59 941.861 1119.3 941.386 1120.26Z"/>
  <path fill="var(--text-2)" d="M670.918 1208.62C670.918 1209.81 670.442 1212.92 669.73 1215.54C669.254 1218.41 670.204 1221.75 671.869 1222.95C674.72 1225.33 751.726 1252.32 755.292 1252.32C756.242 1252.32 756.716 1247.78 756.242 1242.29L755.528 1232.5L715.125 1219.84C672.343 1206.23 671.155 1205.99 670.918 1208.62Z"/>
  <path stroke="var(--text-2)" stroke-width="4" stroke-linecap="round" stroke-linejoin="round" d="M469.707 542.218L351.232 585.562L449.48 686.698L328.115 797.948L653.199 981.44L820.796 841.294L946.494 997.333L1277.36 836.958L1135.76 682.774L1218.12 575.447L1108.94 543.967"/>
  <path stroke="var(--text-2)" stroke-width="4" stroke-linecap="round" stroke-linejoin="round" d="M443.367 863.984L432.102 1205.71L813.071 1341.3L1165.54 1171.94L1164.79 892.472"/>
  <path stroke="var(--text-2)" stroke-width="4" stroke-linecap="round" stroke-linejoin="round" d="M818.818 842.289L813.223 1338.06"/>
  <path fill="var(--text-2)" d="M649.051 552.131C650.24 560.489 649.527 562.161 644.06 565.743C639.07 569.087 636.455 569.565 632.178 567.415C629.087 565.983 625.76 565.505 625.048 566.221C624.333 567.177 623.621 573.863 623.621 581.267C623.621 605.625 639.544 620.669 663.55 618.759C685.653 617.087 698.487 603.237 698.487 581.267C698.487 558.579 685.653 545.207 661.885 543.535L647.863 542.579L649.051 552.131Z"/>
  <path fill="var(--text-2)" d="M922.848 544.489C922.61 545.683 922.372 550.459 922.134 554.759C921.897 565.505 911.914 572.431 904.072 567.415C899.792 564.789 899.08 565.027 896.941 570.519C893.376 580.073 894.089 586.521 900.03 597.983C907.161 612.073 915.479 617.565 930.69 618.759C952.319 620.431 968.242 607.775 971.807 585.803C973.708 574.341 966.104 556.907 955.884 549.265C949.228 544.489 923.322 540.669 922.848 544.489Z"/>
  <path fill="var(--text-2)" d="M819.553 849.211C822.644 846.345 936.963 786.641 1064.83 722.403C1104.28 702.581 1136.61 685.625 1136.61 684.909C1136.61 684.193 1132.8 661.029 1128.29 633.327C1093.35 424.608 1043.92 282.278 998.282 258.635C987.349 253.143 983.31 253.143 972.376 258.874C949.561 271.054 917.951 320.964 901.075 372.07L895.61 388.309L883.726 386.876C821.694 379.234 751.105 378.995 703.334 386.637C689.31 389.025 677.428 390.458 676.952 389.98C676.475 389.503 669.583 377.801 661.741 364.189C634.884 317.144 604.224 277.979 584.972 266.277C579.982 263.173 572.852 261.262 566.434 261.262C557.165 261.262 554.788 262.456 546.47 271.292C520.802 298.278 492.519 384.965 468.99 508.429C454.254 586.043 440.707 685.625 444.51 688.969C445.46 689.685 489.429 708.551 542.43 730.521C664.117 781.389 659.602 779.477 721.872 805.747C750.629 817.925 781.527 833.909 791.984 838.207C802.442 842.507 819.553 849.211 819.553 849.211ZM987.825 332.666C988.537 333.621 983.31 343.651 976.179 354.398C969.049 365.383 959.78 382.816 955.503 393.085C948.609 410.04 944.093 415.055 940.766 409.801C937.915 405.025 951.699 374.458 968.573 348.905C979.983 331.711 984.736 327.651 987.825 332.666ZM592.817 347.711C616.108 376.607 637.973 415.772 632.507 419.115C627.992 421.742 626.327 420.07 618.247 403.831C608.978 385.204 594.005 362.756 583.548 352.01C579.268 347.472 575.703 342.457 575.703 340.786C575.703 334.338 584.972 338.159 592.817 347.711ZM1011.83 382.816C1012.54 384.01 1007.79 390.458 1001.37 397.383C995.193 404.07 987.349 414.816 984.26 421.264C978.318 433.921 973.326 437.742 970.95 431.772C968.811 426.279 978.794 408.607 992.579 393.562C1003.51 381.144 1008.74 378.279 1011.83 382.816ZM584.26 397.861C598.044 412.667 607.551 427.235 605.413 430.817C602.56 435.593 598.044 433.205 593.529 424.369C590.914 419.354 583.072 409.801 576.179 402.876C564.296 390.936 562.395 385.443 569.525 385.443C571.188 385.443 577.842 391.174 584.26 397.861ZM689.786 525.147C728.764 544.967 735.418 599.893 702.146 629.267C671.722 656.013 624.901 647.893 605.651 612.073C596.856 596.073 594.955 575.773 600.659 560.489C605.413 548.071 620.624 530.161 630.843 524.907C648.669 515.593 671.248 515.593 689.786 525.147ZM963.583 525.623C984.972 537.325 996.382 557.147 996.382 581.983C996.382 607.297 984.022 626.639 960.256 638.819C922.228 658.401 874.457 630.939 871.128 587.713C866.85 535.653 918.663 501.027 963.583 525.623ZM822.644 618.521C826.684 621.863 830.012 626.163 830.012 628.073C830.012 636.431 822.168 646.223 811.949 650.759C802.204 655.297 801.491 656.253 801.491 664.611C801.491 673.207 802.442 674.401 818.365 684.909C832.389 694.223 834.528 696.849 832.151 699.715C829.06 703.537 829.536 703.537 808.622 689.447C798.639 682.759 796.262 682.759 791.272 688.253C788.895 690.641 782.477 696.133 776.774 700.193C768.217 706.403 765.84 707.119 763.701 704.491C761.325 701.865 763.939 698.521 776.297 688.253C791.034 676.313 791.984 674.879 791.984 665.805C791.984 656.253 791.508 655.535 780.813 650.281C751.579 635.715 762.989 612.551 799.589 612.311C813.137 612.311 816.464 613.267 822.644 618.521Z"/>
  <path fill="var(--text-2)" d="M648.288 552.131C649.476 560.489 648.764 562.161 643.296 565.743C638.306 569.087 635.692 569.565 631.414 567.415C628.323 565.983 624.996 565.505 624.284 566.221C623.57 567.177 622.857 573.863 622.857 581.267C622.857 605.625 638.781 620.669 662.786 618.759C684.889 617.087 697.723 603.237 697.723 581.267C697.723 558.579 684.889 545.207 661.122 543.535L647.099 542.579L648.288 552.131Z"/>
  <path fill="var(--text-2)" d="M922.084 544.489C921.846 545.683 921.608 550.459 921.37 554.759C921.134 565.505 911.151 572.431 903.308 567.415C899.029 564.789 898.316 565.027 896.178 570.519C892.613 580.073 893.325 586.521 899.267 597.983C906.397 612.073 914.716 617.565 929.927 618.759C951.555 620.431 967.479 607.775 971.044 585.803C972.944 574.341 965.34 556.907 955.121 549.265C948.465 544.489 922.558 540.669 922.084 544.489Z"/>
</svg>
