<svg width="1600" height="1600" viewBox="0 0 1600 1600" fill="none" xmlns="http://www.w3.org/2000/svg">
  <rect fill="var(--accent-semi-transparent)" width="1600" height="1600" rx="800"/>
  <ellipse fill="white" cx="808.846" cy="973.956" rx="147.42" ry="147.42"/>
  <circle fill="white" cx="1024.08" cy="844.226" r="147.42"/>
  <ellipse fill="white" cx="593.613" cy="844.226" rx="147.42" ry="147.42"/>
  <ellipse fill="white" cx="475.677" cy="552.335" rx="103.194" ry="103.194"/>
  <circle fill="white" cx="1109.58" cy="531.696" r="103.194"/>
  <path fill="black" d="M846.165 1268.8C851.036 1264.29 1031.07 1170.15 1232.42 1068.88C1294.56 1037.62 1345.45 1010.89 1345.45 1009.74C1345.45 1008.62 1339.47 972.094 1332.35 928.422C1277.35 599.335 1199.48 374.936 1127.64 337.656C1110.4 328.993 1104.05 328.993 1086.83 338.026C1050.9 357.238 1001.12 435.935 974.537 516.499L965.931 542.104L947.233 539.849C849.551 527.804 738.37 527.417 663.142 539.479C641.059 543.231 622.361 545.502 621.597 544.744C620.854 543.987 609.998 525.533 597.657 504.084C555.368 429.895 507.074 368.156 476.755 349.701C468.892 344.806 457.664 341.795 447.573 341.795C432.96 341.795 429.225 343.679 416.119 357.608C375.709 400.153 331.171 536.838 294.103 731.494C270.906 853.863 249.565 1010.89 255.572 1016.15C257.057 1017.28 326.3 1047.02 409.763 1081.66C601.392 1161.87 594.293 1158.86 692.347 1200.28C737.627 1219.47 786.294 1244.67 802.763 1251.45C819.233 1258.23 846.165 1268.8 846.165 1268.8ZM1111.17 454.373C1112.28 455.887 1104.05 471.7 1092.82 488.641C1081.59 505.968 1067 533.44 1060.25 549.64C1049.39 576.372 1042.29 584.278 1037.05 576.001C1032.55 568.465 1054.26 520.268 1080.85 479.977C1098.8 452.876 1106.29 446.466 1111.17 454.373ZM489.118 478.093C525.793 523.666 560.218 585.405 551.611 590.671C544.512 594.826 541.891 592.185 529.157 566.581C514.565 537.208 490.975 501.813 474.505 484.872C467.778 477.723 462.164 469.816 462.164 467.175C462.164 457.014 476.755 463.037 489.118 478.093ZM1148.95 533.44C1150.09 535.324 1142.6 545.502 1132.48 556.42C1122.76 566.951 1110.4 583.908 1105.55 594.069C1096.18 614.021 1088.32 620.044 1084.58 610.64C1081.22 601.976 1096.95 574.117 1118.64 550.397C1135.87 530.815 1144.11 526.29 1148.95 533.44ZM475.641 557.16C497.353 580.51 512.316 603.473 508.952 609.126C504.452 616.662 497.353 612.894 490.232 598.965C486.126 591.058 473.763 576.001 462.907 565.083C444.187 546.242 441.195 537.595 452.444 537.595C455.043 537.595 465.528 546.629 475.641 557.16ZM641.823 757.855C703.203 789.112 713.687 875.716 661.286 922.029C613.362 964.187 539.642 951.385 509.323 894.911C495.475 869.693 492.482 837.68 501.46 813.573C508.952 794.008 532.892 765.763 548.99 757.486C577.059 742.8 612.619 742.799 641.823 757.855ZM1072.98 758.613C1106.67 777.051 1124.64 808.307 1124.64 847.471C1124.64 887.375 1105.16 917.874 1067.74 937.086C1007.85 967.956 932.62 924.654 927.378 856.505C920.65 774.426 1002.23 719.836 1072.98 758.613ZM851.037 905.072C857.393 910.354 862.635 917.134 862.635 920.145C862.635 933.317 850.294 948.761 834.196 955.91C818.84 963.06 818.206 966.273 818.206 979.446C818.206 993.005 819.233 993.19 844.309 1009.74C859.796 1020.04 880.263 1007.1 890.463 1003.01C892.691 1002.12 895.225 1002.96 896.427 1004.26C897.562 1005.5 897.431 1007.15 896.885 1007.81C892.036 1013.83 861.893 1039.12 828.953 1016.91C813.226 1006.36 807.307 1006.38 793.808 1017.62C765.434 1041.22 739.899 1014.4 736.535 1010.26C735.945 1009.61 735.662 1007.51 737.081 1006.43C738.261 1005.54 740.969 1005.49 742.607 1006.23C751.323 1010.13 768.339 1021.1 779.894 1010.95C799.509 993.745 802.763 990.515 802.763 979.63C802.763 964.574 801.999 963.43 785.158 955.154C739.134 932.19 757.089 895.668 814.733 895.281C836.074 895.281 841.316 896.795 851.037 905.072Z"/>
  <path fill="black" d="M576.469 800.4C578.326 813.589 577.212 816.213 568.606 821.866C560.742 827.148 556.614 827.888 549.886 824.507C545.015 822.252 539.773 821.495 538.659 822.623C537.523 824.137 536.409 834.668 536.409 846.343C536.409 884.749 561.485 908.469 599.295 905.458C634.091 902.817 654.318 880.981 654.318 846.343C654.318 810.578 634.092 789.482 596.674 786.857L574.591 785.343L576.469 800.4Z"/>
  <path fill="black" d="M1007.63 788.354C1007.26 790.238 1006.87 797.775 1006.49 804.554C1006.12 821.495 990.396 832.413 978.055 824.506C971.327 820.368 970.191 820.738 966.827 829.402C961.214 844.458 962.328 854.619 971.698 872.704C982.926 894.91 996.01 903.573 1019.97 905.458C1054.02 908.082 1079.1 888.13 1084.71 853.492C1087.71 835.425 1075.74 807.936 1059.64 795.891C1049.18 788.354 1008.37 782.332 1007.63 788.354Z"/>
</svg>
