<svg width="1600" height="1600" viewBox="0 0 50 40" fill="none" xmlns="http://www.w3.org/2000/svg">
  <path fill="var(--text-2)" d="M27.0854 60.3012C27.3082 60.0326 35.5499 54.437 44.7685 48.4164C47.6129 46.5586 49.9432 44.9694 49.9432 44.9023C49.9432 44.8352 49.669 42.6642 49.3435 40.0679C46.8247 20.5061 43.2606 7.16652 39.9708 4.95072C39.1825 4.43593 38.8913 4.43593 38.1031 4.97309C36.4582 6.11458 34.1793 10.7924 32.9626 15.5821L32.5686 17.1041L31.7118 16.9698C27.2397 16.2536 22.1506 16.2312 18.7066 16.9474C17.6955 17.1712 16.8389 17.3055 16.8045 17.2607C16.7702 17.216 16.2733 16.1193 15.7079 14.8435C13.7717 10.4343 11.5613 6.76364 10.1733 5.66694C9.8136 5.37598 9.29954 5.19691 8.83684 5.19691C8.1686 5.19691 7.99725 5.30882 7.39752 6.13696C5.54698 8.6661 3.50795 16.7907 1.81161 28.3621C0.749259 35.6363 -0.227429 44.9694 0.0467329 45.2829C0.11526 45.35 3.28521 47.1181 7.1063 49.1772C15.8793 53.9447 15.5537 53.7655 20.0431 56.2276C22.1163 57.369 24.3439 58.8671 25.0978 59.2699C25.8517 59.6729 27.0854 60.3012 27.0854 60.3012ZM39.2168 11.8891C39.2682 11.9786 38.8913 12.9187 38.3772 13.9259C37.8632 14.9554 37.1949 16.5893 36.8866 17.5517C36.3895 19.1408 36.064 19.6108 35.8241 19.1184C35.6186 18.6708 36.6124 15.8059 37.8289 13.4111C38.6514 11.7996 38.9941 11.4191 39.2168 11.8891ZM10.7389 13.2992C12.4181 16.0074 13.9944 19.678 13.6004 19.9913C13.2748 20.2375 13.1548 20.0809 12.5722 18.5589C11.904 16.8131 10.8245 14.7092 10.0706 13.702C9.76211 13.2768 9.50508 12.8068 9.50508 12.6501C9.50508 12.0458 10.1733 12.4039 10.7389 13.2992ZM40.9475 16.5893C40.9989 16.7012 40.6562 17.3055 40.1935 17.9546C39.7481 18.5813 39.1825 19.5885 38.9598 20.1928C38.5314 21.379 38.1716 21.7371 38.0002 21.1776C37.846 20.6628 38.5658 19.0065 39.5595 17.5965C40.3478 16.4326 40.7247 16.164 40.9475 16.5893ZM10.122 17.9993C11.1158 19.387 11.8012 20.7523 11.647 21.088C11.4413 21.5357 11.1158 21.3119 10.7902 20.4837C10.6017 20.0137 10.0363 19.1184 9.53941 18.4694C8.68265 17.3503 8.54562 16.8355 9.05968 16.8355C9.17954 16.8355 9.65927 17.3727 10.122 17.9993ZM17.7298 29.929C20.5399 31.7866 21.0197 36.9344 18.6209 39.6874C16.4275 42.1941 13.052 41.4331 11.6641 38.0759C11.0301 36.5764 10.8931 34.6738 11.3043 33.2413C11.647 32.0775 12.7436 30.3989 13.4804 29.9065C14.7655 29.0336 16.3933 29.0336 17.7298 29.929ZM37.4691 29.9736C39.0112 31.0703 39.8337 32.9281 39.8337 35.2558C39.8337 37.6283 38.9426 39.4411 37.2293 40.5826C34.4876 42.4179 31.0436 39.8441 30.8036 35.7929C30.4952 30.9136 34.2306 27.6684 37.4691 29.9736ZM27.3082 38.6803C27.5994 38.9935 27.8394 39.3965 27.8394 39.5755C27.8394 40.3588 27.2739 41.2766 26.5371 41.7017C25.8345 42.127 25.7832 42.2166 25.7832 42.9999C25.7832 43.8056 25.8517 43.9175 26.9997 44.9023C28.0108 45.7753 28.1649 46.0214 27.9936 46.29C27.7708 46.6482 27.8051 46.6482 26.2972 45.3277C25.5775 44.7008 25.4062 44.7008 25.0464 45.2157C24.8751 45.4396 24.4124 45.9543 24.0012 46.3348C23.3843 46.9168 23.2129 46.9839 23.0587 46.7376C22.8874 46.4915 23.0759 46.1781 23.9668 45.2157C25.0293 44.0967 25.0978 43.9623 25.0978 43.1119C25.0978 42.2166 25.0635 42.1493 24.2924 41.6569C22.1848 40.2917 23.0074 38.1207 25.646 38.0982C26.6228 38.0982 26.8627 38.1878 27.3082 38.6803Z"/>
  <path fill="var(--text-2)" d="M14.7377 32.4582C14.8234 33.2416 14.772 33.3983 14.3778 33.734C14.0181 34.0474 13.8296 34.0922 13.5212 33.8907C13.2984 33.7565 13.0585 33.7117 13.0071 33.7788C12.9556 33.8684 12.9043 34.495 12.9043 35.1889C12.9043 37.4718 14.0523 38.8818 15.7829 38.7028C17.3765 38.5461 18.3017 37.248 18.3017 35.1889C18.3017 33.0626 17.3765 31.8093 15.6629 31.6526L14.652 31.563L14.7377 32.4582Z"/>
  <path fill="var(--text-2)" d="M34.4768 31.7418C34.4597 31.8537 34.4425 32.3014 34.4254 32.7044C34.4083 33.7115 33.6886 34.3606 33.1232 33.8905C32.8147 33.6444 32.7633 33.6667 32.6091 34.1814C32.3521 35.0769 32.4035 35.6812 32.8318 36.7554C33.3459 38.076 33.9456 38.5907 35.0423 38.7026C36.6016 38.8593 37.7495 37.6732 38.0066 35.6139C38.1436 34.5396 37.5954 32.9057 36.8586 32.1895C36.3787 31.7418 34.511 31.3838 34.4768 31.7418Z"/>
</svg>
