<svg width="50" height="46" viewBox="0 0 50 46" fill="none" xmlns="http://www.w3.org/2000/svg">
  <ellipse fill="white" cx="25.4052" cy="42.8648" rx="6.75676" ry="8.78378"/>
  <ellipse fill="white" cx="35.2704" cy="35.1353" rx="6.75676" ry="8.78378"/>
  <ellipse fill="white" cx="15.5409" cy="35.1353" rx="6.75676" ry="8.78378"/>
  <ellipse fill="white" cx="10.135" cy="17.7434" rx="4.72973" ry="6.14865"/>
  <ellipse fill="white" cx="39.1887" cy="16.5134" rx="4.72973" ry="6.14865"/>
  <path fill="black" d="M27.1159 60.4323C27.3391 60.1636 35.5905 54.5545 44.8191 48.5203C47.6673 46.6579 50 45.0652 50 44.997C50 44.9298 49.7257 42.7537 49.3993 40.1516C46.8784 20.5435 43.3094 7.17305 40.0166 4.95183C39.2267 4.43561 38.9354 4.43562 38.1465 4.97388C36.4996 6.11858 34.218 10.8076 32.9996 15.6079L32.6051 17.1335L31.7482 16.9992C27.2711 16.2815 22.1753 16.2584 18.7273 16.9771C17.7152 17.2006 16.8582 17.3359 16.8232 17.2908C16.7891 17.2457 16.2915 16.1461 15.7259 14.8681C13.7877 10.4477 11.5742 6.76909 10.1846 5.6695C9.82419 5.37782 9.30959 5.19841 8.84706 5.19841C8.1773 5.19841 8.00611 5.31066 7.40543 6.14061C5.55332 8.67557 3.51198 16.8197 1.81304 28.418C0.749828 35.7091 -0.228279 45.0651 0.0470348 45.3789C0.115112 45.446 3.28874 47.2182 7.1141 49.2821C15.8971 54.0613 15.5717 53.8819 20.0659 56.3497C22.1412 57.4934 24.3718 58.9949 25.1266 59.3988C25.8815 59.8028 27.1159 60.4323 27.1159 60.4323ZM39.2617 11.9062C39.3128 11.9964 38.9354 12.9386 38.4208 13.948C37.9062 14.9804 37.2374 16.6173 36.9281 17.5825C36.4305 19.1753 36.1051 19.6464 35.8649 19.1532C35.6586 18.7042 36.6538 15.8324 37.8722 13.4318C38.6951 11.817 39.0385 11.4351 39.2617 11.9062ZM10.7512 13.3195C12.4322 16.0349 14.0099 19.7135 13.6155 20.0273C13.2901 20.2749 13.17 20.1175 12.5863 18.5919C11.9176 16.8418 10.8363 14.7328 10.0815 13.7234C9.77312 13.2974 9.51582 12.8263 9.51582 12.669C9.51582 12.0635 10.1846 12.4224 10.7512 13.3195ZM40.9937 16.6172C41.0458 16.7295 40.7024 17.3359 40.2389 17.9865C39.7933 18.6139 39.2267 19.6243 39.0044 20.2297C38.575 21.4185 38.2145 21.7774 38.0434 21.2171C37.8892 20.7009 38.61 19.0409 39.6041 17.6276C40.394 16.4609 40.7715 16.1912 40.9937 16.6172ZM10.1335 18.0306C11.1287 19.4218 11.8145 20.7901 11.6603 21.1269C11.454 21.5759 11.1287 21.3514 10.8023 20.5214C10.6141 20.0503 10.0474 19.1532 9.54987 18.5027C8.69189 17.38 8.55473 16.8648 9.07032 16.8648C9.18946 16.8648 9.67 17.4031 10.1335 18.0306ZM17.7502 29.9887C20.5634 31.8511 21.044 37.0112 18.6422 39.7707C16.4457 42.2826 13.0669 41.5198 11.6773 38.1549C11.0426 36.6524 10.9054 34.7449 11.3169 33.3085C11.6603 32.1428 12.7575 30.4598 13.4954 29.9667C14.7818 29.0916 16.4117 29.0916 17.7502 29.9887ZM37.5117 30.0338C39.0555 31.1324 39.8794 32.9948 39.8794 35.3283C39.8794 37.7059 38.9864 39.5231 37.2715 40.6678C34.5263 42.5071 31.0784 39.9271 30.8381 35.8665C30.5298 30.976 34.269 27.7234 37.5117 30.0338ZM27.3392 38.7603C27.6305 39.0751 27.8707 39.479 27.8707 39.6584C27.8707 40.4433 27.3051 41.3634 26.5673 41.7894C25.8635 42.2154 25.8344 42.4069 25.8344 43.1918C25.8344 43.9997 25.8815 44.0107 27.0308 44.997C27.7406 45.6104 28.6787 44.8396 29.1462 44.5961C29.2483 44.5429 29.3645 44.593 29.4195 44.6702C29.4716 44.7444 29.4656 44.8426 29.4405 44.8817C29.2183 45.2405 27.8367 46.7471 26.327 45.424C25.6062 44.7955 25.3349 44.7965 24.7162 45.4661C23.4157 46.8724 22.2453 45.2747 22.0912 45.0281C22.0641 44.989 22.0511 44.8637 22.1162 44.7995C22.1703 44.7464 22.2944 44.7434 22.3695 44.7875C22.7689 45.02 23.5488 45.6736 24.0784 45.0692C24.9775 44.0437 25.1266 43.8513 25.1266 43.2028C25.1266 42.3057 25.0916 42.2375 24.3197 41.7444C22.2103 40.3761 23.0332 38.2 25.6753 38.1769C26.6534 38.1769 26.8936 38.2672 27.3392 38.7603Z"/>
  <path fill="black" d="M14.755 32.5236C14.8401 33.3094 14.7891 33.4658 14.3946 33.8026C14.0342 34.1173 13.845 34.1614 13.5367 33.96C13.3134 33.8256 13.0731 33.7805 13.0221 33.8477C12.97 33.9379 12.9189 34.5654 12.9189 35.261C12.9189 37.5494 14.0683 38.9627 15.8012 38.7833C17.396 38.6259 18.3231 37.3249 18.3231 35.261C18.3231 33.13 17.3961 31.873 15.6811 31.7167L14.6689 31.6265L14.755 32.5236Z"/>
  <path fill="black" d="M34.5166 31.8061C34.4996 31.9184 34.4816 32.3674 34.4646 32.7714C34.4476 33.7807 33.7267 34.4313 33.1611 33.9602C32.8527 33.7136 32.8007 33.7357 32.6465 34.2519C32.3892 35.149 32.4403 35.7544 32.8698 36.8319C33.3843 38.1551 33.984 38.6713 35.0823 38.7835C36.643 38.9399 37.7924 37.7511 38.0497 35.6873C38.1868 34.6107 37.6382 32.9729 36.9003 32.2552C36.4208 31.8061 34.5507 31.4473 34.5166 31.8061Z"/>
</svg>
