<svg width="1600" height="1600" viewBox="0 0 50 40" fill="none" xmlns="http://www.w3.org/2000/svg">
  <ellipse fill="white" cx="25.4054" cy="44.5597" rx="6.75676" ry="10.2201"/>
  <ellipse fill="white" cx="35.2703" cy="35.5661" rx="6.75676" ry="10.2201"/>
  <ellipse fill="white" cx="15.5406" cy="35.5661" rx="6.75676" ry="10.2201"/>
  <ellipse fill="white" cx="10.1351" cy="15.3302" rx="4.72973" ry="7.15409"/>
  <ellipse fill="white" cx="39.1892" cy="13.8993" rx="4.72973" ry="7.15409"/>
  <path fill="black" d="M27.0854 64.8475C27.3082 64.535 35.5499 58.0244 44.7685 51.0193C47.6129 48.8577 49.9432 47.0087 49.9432 46.9306C49.9432 46.8525 49.669 44.3265 49.3435 41.3057C46.8247 18.5451 43.2606 3.02415 39.9708 0.446018C39.1825 -0.152943 38.8913 -0.152943 38.1031 0.472055C36.4582 1.8002 34.1793 7.24292 32.9627 12.8159L32.5686 14.5867L31.7118 14.4305C27.2397 13.5971 22.1506 13.5711 18.7066 14.4044C17.6955 14.6648 16.8389 14.8211 16.8045 14.769C16.7702 14.7169 16.2733 13.4409 15.7079 11.9565C13.7717 6.82626 11.5613 2.5554 10.1733 1.27936C9.8136 0.940817 9.29954 0.732474 8.83684 0.732474C8.1686 0.732474 7.99725 0.862682 7.39752 1.82623C5.54698 4.76895 3.50795 14.2221 1.81161 27.6857C0.749259 36.1494 -0.227429 47.0087 0.0467329 47.3733C0.11526 47.4514 3.28521 49.5087 7.1063 51.9045C15.8793 57.4516 15.5537 57.2431 20.0431 60.1078C22.1163 61.4358 24.3439 63.1789 25.0978 63.6476C25.8517 64.1165 27.0854 64.8475 27.0854 64.8475ZM39.2168 8.51898C39.2682 8.62315 38.8913 9.7169 38.3772 10.8888C37.8632 12.0867 37.195 13.9878 36.8866 15.1076C36.3895 16.9565 36.064 17.5034 35.8241 16.9305C35.6186 16.4096 36.6124 13.0763 37.8289 10.2898C38.6514 8.4148 38.9941 7.9721 39.2168 8.51898ZM10.7389 10.1596C12.4181 13.3107 13.9944 17.5815 13.6004 17.9461C13.2748 18.2326 13.1548 18.0503 12.5722 16.2794C11.904 14.2482 10.8245 11.8002 10.0706 10.6284C9.76211 10.1336 9.50508 9.5867 9.50508 9.40439C9.50508 8.70127 10.1733 9.11794 10.7389 10.1596ZM40.9475 13.9878C40.9989 14.118 40.6562 14.8211 40.1935 15.5763C39.7481 16.3055 39.1825 17.4774 38.9598 18.1805C38.5314 19.5607 38.1716 19.9774 38.0002 19.3263C37.846 18.7274 38.5658 16.8003 39.5595 15.1596C40.3478 13.8055 40.7247 13.493 40.9475 13.9878ZM10.122 15.6284C11.1158 17.243 11.8012 18.8315 11.647 19.2222C11.4413 19.743 11.1158 19.4826 10.7902 18.519C10.6017 17.9721 10.0363 16.9305 9.53941 16.1753C8.68265 14.8732 8.54562 14.2742 9.05968 14.2742C9.17954 14.2742 9.65927 14.8992 10.122 15.6284ZM17.7298 29.5088C20.5399 31.6701 21.0197 37.6597 18.6209 40.8629C16.4275 43.7795 13.052 42.8941 11.6641 38.9879C11.0301 37.2432 10.8931 35.0295 11.3043 33.3628C11.647 32.0086 12.7436 30.0555 13.4804 29.4826C14.7655 28.4669 16.3933 28.4669 17.7298 29.5088ZM37.4691 29.5607C39.0112 30.8368 39.8337 32.9983 39.8337 35.7067C39.8337 38.4671 38.9426 40.5763 37.2293 41.9046C34.4876 44.04 31.0436 41.0452 30.8036 36.3315C30.4952 30.6544 34.2306 26.8785 37.4691 29.5607ZM27.3082 39.6911C27.5994 40.0555 27.8394 40.5244 27.8394 40.7327C27.8394 41.6441 27.2739 42.7119 26.5371 43.2066C25.8345 43.7015 25.7832 43.8057 25.7832 44.7171C25.7832 45.6545 25.8517 45.7847 26.9997 46.9306C28.0108 47.9463 28.1649 48.2327 27.9936 48.5452C27.7708 48.962 27.8051 48.962 26.2972 47.4255C25.5775 46.6962 25.4062 46.6962 25.0464 47.2953C24.8751 47.5557 24.4124 48.1546 24.0012 48.5973C23.3843 49.2745 23.2129 49.3526 23.0587 49.066C22.8874 48.7796 23.0759 48.415 23.9668 47.2953C25.0293 45.9932 25.0978 45.8369 25.0978 44.8473C25.0978 43.8057 25.0635 43.7274 24.2924 43.1545C22.1848 41.5661 23.0074 39.0401 25.646 39.0139C26.6228 39.0139 26.8627 39.1181 27.3082 39.6911Z"/>
  <path fill="black" d="M14.738 32.4513C14.8237 33.3627 14.7724 33.5451 14.3782 33.9357C14.0184 34.3003 13.8299 34.3525 13.5216 34.118C13.2987 33.9618 13.0589 33.9097 13.0075 33.9878C12.956 34.092 12.9047 34.8211 12.9047 35.6285C12.9047 38.2847 14.0526 39.9253 15.7833 39.717C17.3768 39.5347 18.3021 38.0243 18.3021 35.6285C18.3021 33.1544 17.3768 31.6962 15.6633 31.5139L14.6524 31.4097L14.738 32.4513Z"/>
  <path fill="black" d="M34.4772 31.618C34.4601 31.7482 34.4429 32.269 34.4257 32.7379C34.4087 33.9098 33.689 34.6651 33.1236 34.1181C32.8151 33.8317 32.7637 33.8577 32.6095 34.4566C32.3525 35.4984 32.4038 36.2015 32.8322 37.4515C33.3463 38.988 33.946 39.5869 35.0426 39.7171C36.6019 39.8994 37.7499 38.5193 38.0069 36.1233C38.144 34.8733 37.5957 32.9722 36.859 32.1388C36.3791 31.618 34.5114 31.2015 34.4772 31.618Z"/>
</svg>
