<svg width="50" height="44" viewBox="0 0 50 44" fill="none" xmlns="http://www.w3.org/2000/svg">
  <path d="M22.9146 -16.3012C22.6918 -16.0326 14.4501 -10.437 5.23154 -4.41638C2.38708 -2.55861 0.0568103 -0.969447 0.0568103 -0.902339C0.0568103 -0.835231 0.330998 1.33577 0.656538 3.93208C3.17532 23.4939 6.73938 36.8335 10.0292 39.0493C10.8175 39.5641 11.1087 39.5641 11.8969 39.0269C13.5418 37.8854 15.8207 33.2076 17.0374 28.4179L17.4314 26.8959L18.2882 27.0302C22.7603 27.7464 27.8494 27.7688 31.2934 27.0526C32.3045 26.8288 33.1611 26.6945 33.1955 26.7393C33.2298 26.784 33.7267 27.8807 34.2921 29.1565C36.2283 33.5657 38.4387 37.2364 39.8267 38.3331C40.1864 38.624 40.7005 38.8031 41.1632 38.8031C41.8314 38.8031 42.0028 38.6912 42.6025 37.863C44.453 35.3339 46.4921 27.2093 48.1884 15.6379C49.2507 8.36367 50.2274 -0.969447 49.9533 -1.28285C49.8847 -1.34996 46.7148 -3.11814 42.8937 -5.17723C34.1207 -9.94472 34.4463 -9.76553 29.9569 -12.2276C27.8837 -13.369 25.6561 -14.8671 24.9022 -15.2699C24.1483 -15.6729 22.9146 -16.3012 22.9146 -16.3012ZM10.7832 32.1109C10.7318 32.0214 11.1087 31.0813 11.6228 30.0741C12.1368 29.0446 12.8051 27.4107 13.1134 26.4483C13.6105 24.8592 13.936 24.3892 14.1759 24.8816C14.3814 25.3292 13.3876 28.1941 12.1711 30.5889C11.3486 32.2004 11.0059 32.5809 10.7832 32.1109ZM39.2611 30.7008C37.5819 27.9926 36.0056 24.322 36.3996 24.0087C36.7252 23.7625 36.8452 23.9191 37.4278 25.4411C38.096 27.1869 39.1755 29.2908 39.9294 30.298C40.2379 30.7232 40.4949 31.1932 40.4949 31.3499C40.4949 31.9542 39.8267 31.5961 39.2611 30.7008ZM9.05248 27.4107C9.00113 27.2988 9.34384 26.6945 9.80654 26.0454C10.2519 25.4187 10.8175 24.4115 11.0402 23.8072C11.4686 22.621 11.8284 22.2629 11.9998 22.8224C12.154 23.3372 11.4342 24.9935 10.4405 26.4035C9.65221 27.5674 9.27532 27.836 9.05248 27.4107ZM39.878 26.0007C38.8842 24.613 38.1988 23.2477 38.353 22.912C38.5587 22.4643 38.8842 22.6881 39.2098 23.5163C39.3983 23.9863 39.9637 24.8816 40.4606 25.5306C41.3173 26.6497 41.4544 27.1645 40.9403 27.1645C40.8205 27.1645 40.3407 26.6273 39.878 26.0007ZM32.2702 14.071C29.4601 12.2134 28.9803 7.06561 31.3791 4.31259C33.5725 1.80588 36.948 2.5669 38.3359 5.92407C38.9699 7.42363 39.1069 9.3262 38.6957 10.7587C38.353 11.9225 37.2564 13.6011 36.5196 14.0935C35.2345 14.9664 33.6067 14.9664 32.2702 14.071ZM12.5309 14.0264C10.9888 12.9297 10.1663 11.0719 10.1663 8.74419C10.1663 6.37169 11.0574 4.55889 12.7707 3.41735C15.5124 1.58207 18.9564 4.15589 19.1964 8.20715C19.5048 13.0864 15.7694 16.3316 12.5309 14.0264ZM22.6918 5.31974C22.4006 5.00651 22.1606 4.60351 22.1606 4.4245C22.1606 3.64116 22.7261 2.72343 23.4629 2.29829C24.1655 1.87298 24.2168 1.78339 24.2168 1.00005C24.2168 0.194403 24.1483 0.0824985 23.0003 -0.902339C21.9892 -1.77527 21.8351 -2.02139 22.0064 -2.29C22.2292 -2.6482 22.1949 -2.64821 23.7028 -1.32765C24.4225 -0.70084 24.5938 -0.700839 24.9536 -1.21574C25.1249 -1.43955 25.5876 -1.95429 25.9988 -2.3348C26.6157 -2.91681 26.7871 -2.98392 26.9413 -2.73762C27.1126 -2.4915 26.9241 -2.1781 26.0332 -1.21574C24.9707 -0.0966901 24.9022 0.0377014 24.9022 0.888147C24.9022 1.78339 24.9365 1.85067 25.7076 2.34309C27.8152 3.70827 26.9926 5.87927 24.354 5.90176C23.3772 5.90176 23.1373 5.81216 22.6918 5.31974Z" fill="black"/>
  <path d="M35.2623 11.5418C35.1766 10.7584 35.228 10.6017 35.6222 10.266C35.9819 9.95261 36.1704 9.90781 36.4788 10.1093C36.7016 10.2435 36.9415 10.2883 36.9929 10.2212C37.0444 10.1316 37.0957 9.50499 37.0957 8.81107C37.0957 6.52816 35.9477 5.11819 34.2171 5.2972C32.6235 5.45391 31.6983 6.75197 31.6983 8.81107C31.6983 10.9374 32.6235 12.1907 34.3371 12.3474L35.348 12.437L35.2623 11.5418Z" fill="black"/>
  <path d="M15.5232 12.2582C15.5403 12.1463 15.5575 11.6986 15.5746 11.2956C15.5917 10.2885 16.3114 9.63937 16.8768 10.1095C17.1853 10.3556 17.2367 10.3333 17.3909 9.81856C17.6479 8.92314 17.5965 8.31881 17.1682 7.24456C16.6541 5.924 16.0544 5.40927 14.9577 5.29737C13.3984 5.14066 12.2505 6.32683 11.9934 8.3861C11.8564 9.46035 12.4046 11.0943 13.1414 11.8105C13.6213 12.2582 15.489 12.6162 15.5232 12.2582Z" fill="black"/>
</svg>
